<svg width="1440" height="480" viewBox="0 0 1440 480" fill="none" xmlns="http://www.w3.org/2000/svg">
<g clip-path="url(#clip0_1_2)">
<rect width="1440" height="480" fill="url(#paint0_linear_1_2)"/>
<rect x="1" y="1" width="1438" height="478" fill="#000A05"/>
<circle cx="720" cy="240" r="317" stroke="white" stroke-opacity="0.05" stroke-width="2"/>
<circle cx="720" cy="240" r="474" stroke="white" stroke-opacity="0.05" stroke-width="2"/>
<g clip-path="url(#clip1_1_2)">
<path d="M426.281 297H399.719C393.247 297 388 302.247 388 308.719V335.281C388 341.753 393.247 347 399.719 347H426.281C432.753 347 438 341.753 438 335.281V308.719C438 302.247 432.753 297 426.281 297Z" fill="#242938"/>
<path d="M413 325.701C415.013 325.701 416.644 324.07 416.644 322.058C416.644 320.045 415.013 318.414 413 318.414C410.988 318.414 409.356 320.045 409.356 322.058C409.356 324.07 410.988 325.701 413 325.701Z" fill="#00D8FF"/>
<path fill-rule="evenodd" clip-rule="evenodd" d="M413 314.649C417.893 314.649 422.437 315.351 425.864 316.531C429.993 317.952 432.531 320.107 432.531 322.058C432.531 324.091 429.841 326.38 425.407 327.848C422.055 328.959 417.644 329.539 413 329.539C408.239 329.539 403.73 328.995 400.341 327.836C396.052 326.37 393.469 324.052 393.469 322.058C393.469 320.122 395.892 317.985 399.963 316.565C403.403 315.366 408.06 314.649 413 314.649H413Z" stroke="#00D8FF" stroke-width="1.5"/>
<path fill-rule="evenodd" clip-rule="evenodd" d="M406.551 318.375C408.995 314.137 411.873 310.55 414.607 308.171C417.901 305.305 421.036 304.182 422.726 305.157C424.487 306.172 425.126 309.646 424.183 314.221C423.471 317.679 421.77 321.79 419.449 325.813C417.071 329.938 414.347 333.572 411.65 335.929C408.238 338.912 404.939 339.991 403.212 338.995C401.535 338.029 400.894 334.861 401.698 330.625C402.378 327.046 404.083 322.654 406.55 318.375H406.551Z" stroke="#00D8FF" stroke-width="1.5"/>
<path fill-rule="evenodd" clip-rule="evenodd" d="M406.557 325.824C404.106 321.591 402.437 317.305 401.741 313.748C400.902 309.463 401.495 306.187 403.184 305.209C404.943 304.191 408.272 305.372 411.764 308.473C414.405 310.818 417.117 314.345 419.443 318.364C421.829 322.485 423.617 326.659 424.312 330.173C425.192 334.619 424.48 338.016 422.754 339.015C421.079 339.984 418.015 338.958 414.747 336.146C411.986 333.77 409.032 330.099 406.557 325.824Z" stroke="#00D8FF" stroke-width="1.5"/>
</g>
<g clip-path="url(#clip2_1_2)">
<path d="M994.281 391H967.719C961.247 391 956 396.247 956 402.719V429.281C956 435.753 961.247 441 967.719 441H994.281C1000.75 441 1006 435.753 1006 429.281V402.719C1006 396.247 1000.75 391 994.281 391Z" fill="#007ACC"/>
<path d="M967.057 416.166L967.041 418.213H970.295H973.549V427.46V436.705H975.851H978.152V427.46V418.213H981.406H984.66V416.205C984.66 415.094 984.636 414.166 984.605 414.142C984.581 414.11 980.62 414.094 975.819 414.102L967.081 414.126L967.057 416.166Z" fill="white"/>
<path d="M996.345 414.068C997.615 414.386 998.583 414.949 999.472 415.87C999.932 416.362 1000.61 417.259 1000.67 417.473C1000.69 417.536 998.512 418.997 997.194 419.814C997.147 419.846 996.956 419.639 996.742 419.322C996.099 418.386 995.424 417.981 994.393 417.909C992.877 417.806 991.901 418.6 991.909 419.925C991.909 420.314 991.964 420.544 992.123 420.862C992.456 421.552 993.075 421.965 995.02 422.806C998.599 424.346 1000.13 425.362 1001.08 426.806C1002.15 428.417 1002.38 430.989 1001.66 432.901C1000.87 434.981 998.901 436.393 996.131 436.862C995.274 437.012 993.242 436.989 992.321 436.822C990.313 436.465 988.409 435.473 987.234 434.171C986.774 433.663 985.877 432.338 985.932 432.243C985.956 432.211 986.162 432.084 986.393 431.949C986.615 431.822 987.456 431.338 988.25 430.878L989.686 430.044L989.988 430.489C990.409 431.131 991.329 432.012 991.885 432.306C993.48 433.147 995.67 433.028 996.75 432.06C997.21 431.639 997.401 431.203 997.401 430.56C997.401 429.981 997.329 429.727 997.028 429.29C996.639 428.735 995.845 428.266 993.591 427.29C991.012 426.179 989.901 425.489 988.885 424.393C988.297 423.759 987.742 422.743 987.512 421.893C987.321 421.187 987.274 419.417 987.424 418.703C987.956 416.211 989.837 414.473 992.551 413.957C993.432 413.79 995.48 413.854 996.345 414.068Z" fill="white"/>
</g>
<g clip-path="url(#clip3_1_2)">
<path d="M473.281 37H446.719C440.247 37 435 42.2467 435 48.7188V75.2812C435 81.7533 440.247 87 446.719 87H473.281C479.753 87 485 81.7533 485 75.2812V48.7188C485 42.2467 479.753 37 473.281 37Z" fill="#242938"/>
<path d="M475.927 70.5588C471.119 76.9645 460.849 74.8022 454.265 75.1131C454.265 75.1131 453.099 75.1779 451.925 75.3713C451.925 75.3713 452.369 75.1819 452.935 74.9867C457.56 73.3875 459.745 73.0662 462.555 71.6229C467.835 68.9182 473.089 63.0272 474.159 56.9072C472.149 62.7932 466.037 67.859 460.472 69.916C456.662 71.3217 449.774 72.6897 449.773 72.6903C449.776 72.6951 449.498 72.5461 449.494 72.5428C444.81 70.2635 444.674 60.117 453.183 56.8463C456.913 55.4114 460.482 56.1995 464.514 55.2397C468.816 54.217 473.797 50.993 475.822 46.7779C478.092 53.5108 480.819 64.0444 475.927 70.5588ZM476.01 44.6916C475.438 46.0514 474.739 47.2767 473.934 48.3727C470.39 44.7351 465.443 42.4688 459.975 42.4688C449.219 42.4688 440.469 51.2195 440.469 61.9738C440.469 67.6115 442.875 72.6961 446.712 76.2602L447.139 76.6385C446.426 76.0569 446.316 75.0094 446.894 74.2953C447.476 73.5811 448.524 73.4703 449.238 74.0488C449.954 74.6285 450.063 75.6787 449.483 76.394C448.906 77.1096 447.856 77.2176 447.141 76.6403L447.432 76.8977C450.825 79.7551 455.2 81.4811 459.975 81.4811C470.256 81.4811 478.698 73.4801 479.421 63.3815C479.956 58.4369 478.496 52.1583 476.01 44.6916Z" fill="#5FB832"/>
</g>
<g clip-path="url(#clip4_1_2)">
<path d="M1202.8 247H1184.2C1179.67 247 1176 250.673 1176 255.203V273.797C1176 278.327 1179.67 282 1184.2 282H1202.8C1207.33 282 1211 278.327 1211 273.797V255.203C1211 250.673 1207.33 247 1202.8 247Z" fill="#242938"/>
<path d="M1203.82 267.328C1201.04 267.901 1200.84 266.96 1200.84 266.96C1203.77 262.605 1205 257.078 1203.94 255.725C1201.05 252.034 1196.06 253.781 1195.97 253.826L1195.94 253.831C1195.33 253.708 1194.71 253.643 1194.09 253.637C1192.83 253.618 1191.88 253.967 1191.15 254.516C1191.15 254.516 1182.24 250.842 1182.65 259.137C1182.74 260.902 1185.18 272.499 1188.09 268.991C1189.16 267.7 1190.19 266.617 1190.19 266.617C1190.7 266.956 1191.31 267.129 1191.96 267.067L1192.01 267.025C1191.99 267.191 1192 267.358 1192.03 267.523C1191.28 268.361 1191.5 268.508 1190 268.816C1188.48 269.129 1189.37 269.685 1189.95 269.832C1190.66 270.009 1192.29 270.258 1193.4 268.715L1193.35 268.89C1193.65 269.126 1193.85 270.422 1193.82 271.597C1193.78 272.771 1193.76 273.577 1193.99 274.207C1194.22 274.838 1194.45 276.255 1196.42 275.842C1198.07 275.489 1198.92 274.573 1199.04 273.048C1199.13 271.964 1199.32 272.123 1199.33 271.154L1199.48 270.695C1199.66 269.224 1199.51 268.75 1200.53 268.971L1200.77 268.993C1201.52 269.027 1202.5 268.873 1203.07 268.607C1204.31 268.034 1205.04 267.076 1203.82 267.328H1203.82Z" fill="#336791"/>
<path d="M1195.97 253.644C1195.66 253.74 1200.93 251.717 1203.93 255.545C1204.99 256.898 1203.76 262.426 1200.83 266.78M1193.51 268.025C1193.44 270.761 1193.53 273.516 1193.8 274.177C1194.07 274.839 1194.64 276.148 1196.61 275.727C1198.26 275.374 1198.86 274.691 1199.12 273.182L1199.73 268.36L1193.51 268.025ZM1191.15 254.31C1191.15 254.31 1182.23 250.661 1182.64 258.956C1182.73 260.721 1185.17 272.318 1188.08 268.81C1189.15 267.528 1190.11 266.525 1190.11 266.525L1191.15 254.31Z" stroke="white" stroke-linecap="round" stroke-linejoin="round"/>
<path d="M1200.83 266.778C1200.83 266.778 1201.02 267.72 1203.81 267.145C1205.03 266.894 1204.29 267.851 1203.06 268.424C1202.05 268.895 1199.77 269.015 1199.74 268.366C1199.64 266.689 1200.93 267.198 1200.84 266.778C1200.76 266.4 1200.18 266.029 1199.8 265.102C1199.46 264.294 1195.22 258.094 1200.97 259.014C1201.18 258.971 1199.47 253.534 1194.09 253.456C1188.71 253.377 1188.88 260.074 1188.88 260.074" stroke="white" stroke-linecap="round" stroke-linejoin="bevel"/>
<path d="M1192.01 267.353C1191.26 268.191 1191.48 268.339 1189.98 268.647C1188.46 268.96 1189.35 269.516 1189.93 269.662C1190.64 269.839 1192.27 270.089 1193.38 268.544C1193.71 268.073 1193.37 267.323 1192.91 267.133C1192.69 267.041 1192.39 266.925 1192.01 267.354L1192.01 267.353Z" stroke="white" stroke-linejoin="round"/>
<path d="M1191.96 267.339C1191.88 266.846 1192.12 266.26 1192.37 265.574C1192.76 264.545 1193.64 263.517 1192.93 260.251C1192.41 257.819 1188.88 259.744 1188.88 260.074C1188.88 260.404 1189.04 261.747 1188.82 263.309C1188.53 265.349 1190.12 267.073 1191.94 266.898" stroke="white" stroke-linecap="round" stroke-linejoin="round"/>
<path d="M1191.12 260.025C1191.1 260.138 1191.32 260.438 1191.61 260.479C1191.9 260.519 1192.15 260.285 1192.17 260.171C1192.18 260.058 1191.96 259.935 1191.67 259.894C1191.38 259.854 1191.13 259.914 1191.12 260.025Z" fill="white" stroke="white" stroke-width="1.68"/>
<path d="M1199.93 259.795C1199.94 259.908 1199.72 260.209 1199.43 260.249C1199.14 260.289 1198.89 260.055 1198.88 259.941C1198.86 259.828 1199.09 259.705 1199.37 259.665C1199.66 259.624 1199.91 259.684 1199.93 259.795Z" fill="white" stroke="white" stroke-width="0.837"/>
<path d="M1200.96 259.016C1201.01 259.9 1200.77 260.501 1200.74 261.442C1200.7 262.809 1201.39 264.374 1200.34 265.941" stroke="white" stroke-linecap="round" stroke-linejoin="round"/>
</g>
<g clip-path="url(#clip5_1_2)">
<path d="M1166.8 37H1148.2C1143.67 37 1140 40.6727 1140 45.2031V63.7969C1140 68.3273 1143.67 72 1148.2 72H1166.8C1171.33 72 1175 68.3273 1175 63.7969V45.2031C1175 40.6727 1171.33 37 1166.8 37Z" fill="#242938"/>
<path d="M1156.6 40.8355C1156.55 40.8408 1156.36 40.8595 1156.19 40.8729C1152.31 41.2231 1148.67 43.3186 1146.36 46.5395C1145.08 48.3303 1144.26 50.3617 1143.95 52.5134C1143.84 53.2645 1143.83 53.4864 1143.83 54.5047C1143.83 55.5231 1143.84 55.745 1143.95 56.496C1144.69 61.6306 1148.35 65.9447 1153.3 67.5431C1154.19 67.8291 1155.13 68.0242 1156.19 68.1418C1156.6 68.1872 1158.4 68.1872 1158.81 68.1418C1160.65 67.9386 1162.2 67.4843 1163.74 66.7011C1163.97 66.5809 1164.02 66.5488 1163.98 66.5221C1163.96 66.506 1162.96 65.1615 1161.76 63.5364L1159.57 60.5829L1156.83 56.5281C1155.32 54.2989 1154.08 52.4759 1154.07 52.4759C1154.06 52.4733 1154.05 54.2748 1154.05 56.4746C1154.04 60.3263 1154.04 60.4813 1153.99 60.5721C1153.92 60.7031 1153.86 60.7565 1153.75 60.8155C1153.67 60.8581 1153.59 60.8662 1153.19 60.8662H1152.73L1152.6 60.7887C1152.52 60.7379 1152.46 60.6711 1152.42 60.5936L1152.37 60.4733L1152.37 55.1142L1152.38 49.7523L1152.46 49.648C1152.51 49.5919 1152.6 49.5197 1152.66 49.485C1152.77 49.4315 1152.81 49.4262 1153.28 49.4262C1153.82 49.4262 1153.91 49.4476 1154.05 49.6026C1154.09 49.6454 1155.58 51.8799 1157.35 54.5715C1159.13 57.2631 1161.55 60.9384 1162.75 62.7425L1164.91 66.0223L1165.02 65.9501C1165.99 65.3193 1167.02 64.4212 1167.83 63.4856C1169.56 61.4996 1170.67 59.078 1171.05 56.496C1171.16 55.745 1171.17 55.5231 1171.17 54.5047C1171.17 53.4864 1171.16 53.2645 1171.05 52.5134C1170.31 47.3787 1166.65 43.0647 1161.7 41.4663C1160.82 41.183 1159.89 40.9878 1158.85 40.8702C1158.59 40.8435 1156.83 40.8141 1156.6 40.8355ZM1162.2 49.1054C1162.33 49.1696 1162.43 49.2925 1162.47 49.4208C1162.49 49.4903 1162.5 50.9765 1162.49 54.3256L1162.48 59.1315L1161.64 57.8324L1160.79 56.5334V53.04C1160.79 50.7814 1160.8 49.5117 1160.81 49.4502C1160.86 49.3006 1160.95 49.183 1161.08 49.1134C1161.19 49.0573 1161.23 49.052 1161.65 49.052C1162.04 49.052 1162.11 49.0573 1162.2 49.1054Z" fill="white"/>
</g>
<g clip-path="url(#clip6_1_2)">
<path d="M281.797 381H263.203C258.673 381 255 384.673 255 389.203V407.797C255 412.327 258.673 416 263.203 416H281.797C286.327 416 290 412.327 290 407.797V389.203C290 384.673 286.327 381 281.797 381Z" fill="#242938"/>
<path d="M273.975 406.885H283.377C283.676 406.886 283.969 406.808 284.228 406.66C284.487 406.512 284.701 406.299 284.85 406.042C285 405.786 285.078 405.495 285.078 405.199C285.078 404.903 284.999 404.612 284.85 404.356L278.535 393.516C278.386 393.26 278.171 393.047 277.913 392.899C277.654 392.751 277.361 392.673 277.062 392.673C276.764 392.673 276.47 392.751 276.212 392.899C275.953 393.047 275.739 393.26 275.589 393.516L273.975 396.29L270.818 390.866C270.669 390.61 270.454 390.397 270.195 390.249C269.937 390.101 269.643 390.023 269.345 390.023C269.046 390.023 268.753 390.101 268.494 390.249C268.235 390.397 268.02 390.61 267.871 390.866L260.014 404.356C259.864 404.612 259.785 404.903 259.785 405.199C259.785 405.495 259.864 405.786 260.013 406.042C260.162 406.299 260.377 406.512 260.635 406.66C260.894 406.808 261.187 406.886 261.486 406.885H267.388C269.727 406.885 271.451 405.867 272.638 403.881L275.519 398.936L277.062 396.29L281.693 404.239H275.519L273.975 406.885ZM267.292 404.236L263.173 404.235L269.347 393.637L272.428 398.936L270.365 402.478C269.577 403.767 268.682 404.236 267.292 404.236Z" fill="#00DC82"/>
</g>
<g clip-path="url(#clip7_1_2)">
<path d="M1031.28 111H1004.72C998.247 111 993 116.247 993 122.719V149.281C993 155.753 998.247 161 1004.72 161H1031.28C1037.75 161 1043 155.753 1043 149.281V122.719C1043 116.247 1037.75 111 1031.28 111Z" fill="#242938"/>
<path d="M1016.41 117.077C1017.37 116.527 1018.63 116.525 1019.59 117.077C1024.41 119.806 1029.24 122.53 1034.07 125.26C1034.98 125.771 1035.59 126.782 1035.58 127.828V144.243C1035.58 145.333 1034.92 146.368 1033.96 146.868C1029.15 149.581 1024.34 152.298 1019.52 155.011C1018.54 155.572 1017.27 155.529 1016.32 154.922C1014.88 154.086 1013.43 153.253 1011.99 152.418C1011.69 152.242 1011.36 152.102 1011.15 151.816C1011.34 151.568 1011.66 151.537 1011.93 151.429C1012.53 151.237 1013.09 150.93 1013.64 150.631C1013.78 150.536 1013.95 150.572 1014.09 150.658C1015.32 151.365 1016.54 152.094 1017.78 152.794C1018.04 152.947 1018.31 152.744 1018.54 152.618C1023.26 149.949 1027.99 147.29 1032.71 144.62C1032.89 144.536 1032.98 144.35 1032.97 144.158C1032.97 138.743 1032.97 133.328 1032.97 127.912C1032.99 127.695 1032.86 127.495 1032.67 127.406C1027.87 124.705 1023.08 122 1018.28 119.298C1018.11 119.182 1017.89 119.181 1017.72 119.298C1012.92 122 1008.13 124.708 1003.33 127.408C1003.14 127.498 1003.01 127.694 1003.03 127.912C1003.03 133.328 1003.03 138.743 1003.03 144.159C1003.01 144.351 1003.12 144.533 1003.29 144.615C1004.57 145.341 1005.85 146.061 1007.13 146.784C1007.85 147.172 1008.74 147.403 1009.53 147.106C1010.24 146.854 1010.73 146.138 1010.71 145.394C1010.72 140.011 1010.71 134.626 1010.72 129.244C1010.7 129.005 1010.93 128.807 1011.16 128.83C1011.78 128.826 1012.39 128.822 1013.01 128.831C1013.26 128.826 1013.44 129.083 1013.41 129.324C1013.4 134.741 1013.41 140.159 1013.4 145.576C1013.4 147.02 1012.81 148.591 1011.48 149.298C1009.83 150.15 1007.8 149.969 1006.17 149.152C1004.76 148.45 1003.42 147.621 1002.04 146.868C1001.08 146.371 1000.42 145.332 1000.42 144.244V127.828C1000.41 126.76 1001.04 125.731 1001.98 125.227C1006.79 122.512 1011.6 119.794 1016.41 117.077Z" fill="#81CD39"/>
<path d="M1020.61 128.448C1022.71 128.313 1024.96 128.368 1026.85 129.402C1028.31 130.194 1029.12 131.857 1029.14 133.482C1029.1 133.701 1028.87 133.821 1028.67 133.806C1028.06 133.806 1027.45 133.815 1026.84 133.802C1026.58 133.812 1026.43 133.574 1026.4 133.346C1026.22 132.569 1025.8 131.799 1025.07 131.424C1023.94 130.862 1022.64 130.89 1021.42 130.902C1020.52 130.949 1019.56 131.027 1018.8 131.552C1018.22 131.95 1018.05 132.754 1018.25 133.402C1018.45 133.867 1018.99 134.017 1019.43 134.155C1021.95 134.816 1024.63 134.75 1027.12 135.621C1028.14 135.976 1029.15 136.666 1029.5 137.741C1029.96 139.183 1029.76 140.905 1028.73 142.062C1027.9 143.014 1026.69 143.533 1025.48 143.814C1023.87 144.173 1022.21 144.182 1020.57 144.023C1019.04 143.848 1017.44 143.445 1016.26 142.399C1015.24 141.519 1014.75 140.149 1014.8 138.826C1014.81 138.603 1015.03 138.447 1015.25 138.465C1015.86 138.46 1016.47 138.458 1017.09 138.466C1017.33 138.448 1017.51 138.66 1017.53 138.891C1017.64 139.631 1017.92 140.409 1018.56 140.848C1019.81 141.652 1021.37 141.597 1022.8 141.619C1023.98 141.567 1025.31 141.551 1026.27 140.77C1026.78 140.324 1026.93 139.578 1026.8 138.937C1026.65 138.395 1026.08 138.143 1025.59 137.978C1023.1 137.188 1020.39 137.475 1017.92 136.581C1016.91 136.227 1015.94 135.556 1015.55 134.525C1015.02 133.065 1015.26 131.26 1016.4 130.142C1017.5 129.03 1019.1 128.601 1020.61 128.448Z" fill="#81CD39"/>
</g>
<g clip-path="url(#clip8_1_2)">
<path d="M263.797 129H245.203C240.673 129 237 132.673 237 137.203V155.797C237 160.327 240.673 164 245.203 164H263.797C268.327 164 272 160.327 272 155.797V137.203C272 132.673 268.327 129 263.797 129Z" fill="#242938"/>
<path d="M250.895 153.967C250.895 153.967 249.845 154.606 251.626 154.789C253.776 155.063 254.913 155.017 257.287 154.561C257.287 154.561 257.926 154.973 258.794 155.292C253.452 157.574 246.695 155.155 250.895 153.967ZM250.21 151C250.21 151 249.069 151.868 250.849 152.05C253.178 152.278 255.004 152.324 258.155 151.685C258.155 151.685 258.566 152.142 259.251 152.37C252.813 154.288 245.599 152.552 250.21 151V151ZM262.812 156.205C262.812 156.205 263.588 156.844 261.944 157.346C258.885 158.259 249.115 158.534 246.375 157.346C245.417 156.935 247.243 156.341 247.836 156.251C248.43 156.114 248.749 156.114 248.749 156.114C247.699 155.383 241.764 157.62 245.736 158.264C256.648 160.045 265.642 157.488 262.811 156.209L262.812 156.205ZM251.397 147.895C251.397 147.895 246.421 149.082 249.616 149.493C250.986 149.675 253.68 149.63 256.191 149.447C258.246 149.265 260.305 148.899 260.305 148.899C260.305 148.899 259.574 149.219 259.072 149.538C254 150.863 244.275 150.27 247.06 148.9C249.435 147.758 251.397 147.895 251.397 147.895ZM260.3 152.872C265.414 150.223 263.039 147.667 261.396 147.987C260.984 148.078 260.802 148.169 260.802 148.169C260.802 148.169 260.939 147.895 261.259 147.804C264.5 146.663 267.057 151.229 260.209 153.009C260.209 153.009 260.255 152.963 260.3 152.872V152.872ZM251.899 160.085C256.831 160.405 264.364 159.903 264.547 157.574C264.547 157.574 264.182 158.487 260.483 159.171C256.283 159.948 251.078 159.856 248.019 159.354C248.019 159.354 248.658 159.902 251.9 160.084L251.899 160.085Z" fill="white"/>
<path d="M257.191 132.828C257.191 132.828 260.022 135.705 254.498 140.041C250.069 143.557 253.493 145.566 254.498 147.848C251.895 145.52 250.024 143.465 251.302 141.548C253.178 138.718 258.337 137.349 257.191 132.828ZM255.73 145.932C257.054 147.438 255.366 148.808 255.366 148.808C255.366 148.808 258.744 147.074 257.192 144.927C255.777 142.872 254.681 141.868 260.617 138.443C260.617 138.443 251.257 140.771 255.731 145.931L255.73 145.932Z" fill="#F58219"/>
</g>
<path d="M688.3 315.2H691.26V321.56H691.38C691.5 321.267 691.647 320.993 691.82 320.74C691.993 320.487 692.2 320.267 692.44 320.08C692.693 319.88 692.98 319.727 693.3 319.62C693.633 319.5 694.007 319.44 694.42 319.44C694.913 319.44 695.367 319.527 695.78 319.7C696.193 319.86 696.547 320.107 696.84 320.44C697.133 320.773 697.36 321.18 697.52 321.66C697.693 322.14 697.78 322.693 697.78 323.32V330H694.82V323.72C694.82 322.387 694.24 321.72 693.08 321.72C692.853 321.72 692.627 321.753 692.4 321.82C692.187 321.873 691.993 321.967 691.82 322.1C691.647 322.22 691.507 322.373 691.4 322.56C691.307 322.747 691.26 322.967 691.26 323.22V330H688.3V315.2ZM705.792 330C704.726 330 703.932 329.72 703.412 329.16C702.892 328.6 702.632 327.887 702.632 327.02V321.98H699.832V319.68H701.652C702.092 319.68 702.406 319.593 702.592 319.42C702.779 319.247 702.872 318.927 702.872 318.46V316.04H705.592V319.68H709.612V321.98H705.592V327.7H709.612V330H705.792ZM717.784 330C716.718 330 715.924 329.72 715.404 329.16C714.884 328.6 714.624 327.887 714.624 327.02V321.98H711.824V319.68H713.644C714.084 319.68 714.398 319.593 714.584 319.42C714.771 319.247 714.864 318.927 714.864 318.46V316.04H717.584V319.68H721.604V321.98H717.584V327.7H721.604V330H717.784ZM724.157 319.68H727.117V321.56H727.257C727.51 320.947 727.877 320.44 728.357 320.04C728.837 319.64 729.49 319.44 730.317 319.44C730.89 319.44 731.41 319.547 731.877 319.76C732.357 319.973 732.763 320.3 733.097 320.74C733.443 321.18 733.71 321.74 733.897 322.42C734.097 323.1 734.197 323.907 734.197 324.84C734.197 325.773 734.097 326.58 733.897 327.26C733.71 327.94 733.443 328.5 733.097 328.94C732.763 329.38 732.357 329.707 731.877 329.92C731.41 330.133 730.89 330.24 730.317 330.24C729.49 330.24 728.837 330.047 728.357 329.66C727.877 329.26 727.51 328.747 727.257 328.12H727.117V334H724.157V319.68ZM729.037 327.94C729.703 327.94 730.217 327.74 730.577 327.34C730.937 326.927 731.117 326.36 731.117 325.64V324.04C731.117 323.32 730.937 322.76 730.577 322.36C730.217 321.947 729.703 321.74 729.037 321.74C728.517 321.74 728.063 321.867 727.677 322.12C727.303 322.373 727.117 322.773 727.117 323.32V326.36C727.117 326.907 727.303 327.307 727.677 327.56C728.063 327.813 728.517 327.94 729.037 327.94ZM740.849 330.24C739.702 330.24 738.702 330.067 737.849 329.72C737.009 329.373 736.375 328.9 735.949 328.3L737.609 326.76C738.009 327.2 738.475 327.547 739.009 327.8C739.555 328.04 740.175 328.16 740.869 328.16C741.455 328.16 741.915 328.073 742.249 327.9C742.582 327.713 742.749 327.433 742.749 327.06C742.749 326.767 742.635 326.567 742.409 326.46C742.182 326.34 741.869 326.247 741.469 326.18L739.809 325.92C739.342 325.853 738.909 325.753 738.509 325.62C738.109 325.473 737.762 325.28 737.469 325.04C737.175 324.8 736.942 324.507 736.769 324.16C736.595 323.813 736.509 323.393 736.509 322.9C736.509 321.82 736.922 320.973 737.749 320.36C738.575 319.747 739.735 319.44 741.229 319.44C742.242 319.44 743.102 319.58 743.809 319.86C744.529 320.127 745.102 320.513 745.529 321.02L744.049 322.7C743.742 322.367 743.349 322.087 742.869 321.86C742.389 321.633 741.809 321.52 741.129 321.52C739.982 321.52 739.409 321.867 739.409 322.56C739.409 322.867 739.522 323.08 739.749 323.2C739.975 323.307 740.289 323.393 740.689 323.46L742.329 323.72C742.795 323.787 743.229 323.893 743.629 324.04C744.029 324.173 744.375 324.36 744.669 324.6C744.975 324.84 745.215 325.133 745.389 325.48C745.562 325.827 745.649 326.247 745.649 326.74C745.649 327.82 745.229 328.673 744.389 329.3C743.562 329.927 742.382 330.24 740.849 330.24ZM752.961 330.24C752.214 330.24 751.674 330.08 751.341 329.76C751.021 329.427 750.861 329.033 750.861 328.58V327.88C750.861 327.427 751.021 327.04 751.341 326.72C751.674 326.387 752.214 326.22 752.961 326.22C753.708 326.22 754.241 326.387 754.561 326.72C754.894 327.04 755.061 327.427 755.061 327.88V328.58C755.061 329.033 754.894 329.427 754.561 329.76C754.241 330.08 753.708 330.24 752.961 330.24ZM752.961 323.46C752.214 323.46 751.674 323.3 751.341 322.98C751.021 322.647 750.861 322.253 750.861 321.8V321.1C750.861 320.647 751.021 320.26 751.341 319.94C751.674 319.607 752.214 319.44 752.961 319.44C753.708 319.44 754.241 319.607 754.561 319.94C754.894 320.26 755.061 320.647 755.061 321.1V321.8C755.061 322.253 754.894 322.647 754.561 322.98C754.241 323.3 753.708 323.46 752.961 323.46ZM760.413 332.76L766.833 314.8H769.493L763.073 332.76H760.413ZM772.405 332.76L778.825 314.8H781.485L775.065 332.76H772.405ZM783.538 330V319.68H785.918V321.2H786.058C786.218 320.72 786.444 320.307 786.738 319.96C787.044 319.613 787.471 319.44 788.018 319.44C789.018 319.44 789.631 320.027 789.858 321.2H789.978C790.058 320.96 790.158 320.733 790.278 320.52C790.398 320.307 790.544 320.12 790.718 319.96C790.891 319.8 791.098 319.673 791.338 319.58C791.578 319.487 791.858 319.44 792.178 319.44C793.618 319.44 794.338 320.5 794.338 322.62V330H791.958V322.92C791.958 322.44 791.871 322.107 791.698 321.92C791.538 321.72 791.324 321.62 791.058 321.62C790.804 321.62 790.584 321.707 790.398 321.88C790.224 322.04 790.138 322.293 790.138 322.64V330H787.738V322.92C787.738 322.44 787.658 322.107 787.498 321.92C787.351 321.72 787.144 321.62 786.878 321.62C786.611 321.62 786.384 321.707 786.198 321.88C786.011 322.04 785.918 322.293 785.918 322.64V330H783.538ZM801.57 318.36C800.903 318.36 800.436 318.227 800.17 317.96C799.916 317.68 799.79 317.347 799.79 316.96V316.38C799.79 315.98 799.916 315.647 800.17 315.38C800.436 315.113 800.903 314.98 801.57 314.98C802.236 314.98 802.696 315.113 802.95 315.38C803.216 315.647 803.35 315.98 803.35 316.38V316.96C803.35 317.347 803.216 317.68 802.95 317.96C802.696 318.227 802.236 318.36 801.57 318.36ZM796.81 327.7H800.09V321.98H796.81V319.68H803.05V327.7H806.09V330H796.81V327.7ZM808.222 330V319.68H811.182V321.56H811.302C811.422 321.267 811.569 320.993 811.742 320.74C811.915 320.487 812.122 320.267 812.362 320.08C812.615 319.88 812.902 319.727 813.222 319.62C813.555 319.5 813.929 319.44 814.342 319.44C814.835 319.44 815.289 319.527 815.702 319.7C816.115 319.86 816.469 320.107 816.762 320.44C817.055 320.773 817.282 321.18 817.442 321.66C817.615 322.14 817.702 322.693 817.702 323.32V330H814.742V323.72C814.742 322.387 814.162 321.72 813.002 321.72C812.775 321.72 812.549 321.753 812.322 321.82C812.109 321.873 811.915 321.967 811.742 322.1C811.569 322.22 811.429 322.373 811.322 322.56C811.229 322.747 811.182 322.967 811.182 323.22V330H808.222ZM825.334 330.24C824.521 330.24 823.787 330.12 823.134 329.88C822.494 329.627 821.947 329.267 821.494 328.8C821.054 328.333 820.714 327.767 820.474 327.1C820.234 326.433 820.114 325.68 820.114 324.84C820.114 324 820.234 323.247 820.474 322.58C820.714 321.913 821.054 321.347 821.494 320.88C821.947 320.413 822.494 320.06 823.134 319.82C823.787 319.567 824.514 319.44 825.314 319.44C826.447 319.44 827.354 319.673 828.034 320.14C828.727 320.593 829.254 321.2 829.614 321.96L827.334 323.2C827.147 322.8 826.901 322.467 826.594 322.2C826.301 321.933 825.874 321.8 825.314 321.8C824.634 321.8 824.107 322 823.734 322.4C823.374 322.787 823.194 323.32 823.194 324V325.68C823.194 326.36 823.374 326.9 823.734 327.3C824.107 327.687 824.647 327.88 825.354 327.88C825.927 327.88 826.374 327.747 826.694 327.48C827.027 327.213 827.307 326.867 827.534 326.44L829.774 327.72C829.401 328.48 828.854 329.093 828.134 329.56C827.427 330.013 826.494 330.24 825.334 330.24ZM832.206 315.2H835.166V321.56H835.286C835.406 321.267 835.553 320.993 835.726 320.74C835.9 320.487 836.106 320.267 836.346 320.08C836.6 319.88 836.886 319.727 837.206 319.62C837.54 319.5 837.913 319.44 838.326 319.44C838.82 319.44 839.273 319.527 839.686 319.7C840.1 319.86 840.453 320.107 840.746 320.44C841.04 320.773 841.266 321.18 841.426 321.66C841.6 322.14 841.686 322.693 841.686 323.32V330H838.726V323.72C838.726 322.387 838.146 321.72 836.986 321.72C836.76 321.72 836.533 321.753 836.306 321.82C836.093 321.873 835.9 321.967 835.726 322.1C835.553 322.22 835.413 322.373 835.306 322.56C835.213 322.747 835.166 322.967 835.166 323.22V330H832.206V315.2ZM848.898 330.24C848.152 330.24 847.612 330.08 847.278 329.76C846.958 329.427 846.798 329.033 846.798 328.58V327.88C846.798 327.427 846.958 327.04 847.278 326.72C847.612 326.387 848.152 326.22 848.898 326.22C849.645 326.22 850.178 326.387 850.498 326.72C850.832 327.04 850.998 327.427 850.998 327.88V328.58C850.998 329.033 850.832 329.427 850.498 329.76C850.178 330.08 849.645 330.24 848.898 330.24ZM862.751 328.12H862.611C862.344 328.747 861.971 329.26 861.491 329.66C861.024 330.047 860.377 330.24 859.551 330.24C858.977 330.24 858.451 330.133 857.971 329.92C857.504 329.707 857.097 329.38 856.751 328.94C856.417 328.5 856.151 327.94 855.951 327.26C855.764 326.58 855.671 325.773 855.671 324.84C855.671 323.907 855.764 323.1 855.951 322.42C856.151 321.74 856.417 321.18 856.751 320.74C857.097 320.3 857.504 319.973 857.971 319.76C858.451 319.547 858.977 319.44 859.551 319.44C859.964 319.44 860.331 319.493 860.651 319.6C860.971 319.707 861.251 319.853 861.491 320.04C861.744 320.227 861.957 320.453 862.131 320.72C862.317 320.973 862.477 321.253 862.611 321.56H862.751V315.2H865.711V330H862.751V328.12ZM860.831 327.94C861.351 327.94 861.797 327.813 862.171 327.56C862.557 327.307 862.751 326.907 862.751 326.36V323.32C862.751 322.773 862.557 322.373 862.171 322.12C861.797 321.867 861.351 321.74 860.831 321.74C860.164 321.74 859.651 321.947 859.291 322.36C858.931 322.76 858.751 323.32 858.751 324.04V325.64C858.751 326.36 858.931 326.927 859.291 327.34C859.651 327.74 860.164 327.94 860.831 327.94ZM873.163 330.24C871.429 330.24 870.116 329.76 869.223 328.8C868.329 327.84 867.883 326.533 867.883 324.88C867.883 324.04 867.996 323.287 868.223 322.62C868.463 321.94 868.796 321.367 869.223 320.9C869.663 320.42 870.189 320.06 870.803 319.82C871.429 319.567 872.129 319.44 872.903 319.44C873.676 319.44 874.369 319.567 874.983 319.82C875.596 320.06 876.116 320.407 876.543 320.86C876.969 321.313 877.296 321.867 877.523 322.52C877.763 323.16 877.883 323.88 877.883 324.68V325.56H870.823V325.74C870.823 326.407 871.029 326.947 871.443 327.36C871.856 327.76 872.463 327.96 873.263 327.96C873.876 327.96 874.403 327.847 874.843 327.62C875.283 327.38 875.663 327.067 875.983 326.68L877.583 328.42C877.183 328.913 876.623 329.34 875.903 329.7C875.183 330.06 874.269 330.24 873.163 330.24ZM872.923 321.56C872.283 321.56 871.769 321.76 871.383 322.16C871.009 322.547 870.823 323.073 870.823 323.74V323.9H874.983V323.74C874.983 323.06 874.796 322.527 874.423 322.14C874.063 321.753 873.563 321.56 872.923 321.56ZM883.115 330L879.415 319.68H882.535L883.875 324.1L884.855 327.54H885.015L885.995 324.1L887.335 319.68H890.335L886.635 330H883.115Z" fill="#F9FAFB" fill-opacity="0.75"/>
<path d="M557.92 330.34V332.26H555.82C551.38 332.26 549.76 329.52 549.76 323.9C549.76 317.84 551.64 315.8 555.02 315.8C558.48 315.8 560.06 317.96 560.06 320.74V328.18H557.92V326.96H557.78C557.48 327.94 556.82 328.42 555.9 328.42C554.34 328.42 553.42 327.08 553.42 324.12C553.42 321.16 554.34 319.82 555.9 319.82C556.82 319.82 557.48 320.3 557.78 321.28H557.92V320.74C557.92 318.48 556.8 317.7 555.14 317.7C553.18 317.7 552 318.82 552 322.84V325.42C552 328.52 553.06 330.34 555.82 330.34H557.92ZM556.78 326.7C557.52 326.7 557.92 326.24 557.92 325.52V322.72C557.92 322 557.52 321.54 556.78 321.54C556.06 321.54 555.66 321.98 555.66 323.46V324.78C555.66 326.26 556.06 326.7 556.78 326.7ZM566.992 330.24C563.772 330.24 561.812 328.18 561.812 324.84C561.812 321.5 563.772 319.44 566.992 319.44C570.212 319.44 572.172 321.5 572.172 324.84C572.172 328.18 570.212 330.24 566.992 330.24ZM566.992 328.04C568.312 328.04 569.112 327.18 569.112 325.66V324.02C569.112 322.5 568.312 321.64 566.992 321.64C565.672 321.64 564.872 322.5 564.872 324.02V325.66C564.872 327.18 565.672 328.04 566.992 328.04ZM577.244 330H574.284V319.68H577.244V321.56H577.364C577.824 320.4 578.744 319.44 580.404 319.44C582.384 319.44 583.764 320.82 583.764 323.32V330H580.804V323.72C580.804 322.42 580.224 321.72 579.064 321.72C578.144 321.72 577.244 322.22 577.244 323.22V330ZM591.257 330.24C587.797 330.24 585.977 328.18 585.977 324.88C585.977 321.5 587.897 319.44 590.997 319.44C594.077 319.44 595.977 321.46 595.977 324.68V325.56H588.917V325.74C588.917 327.06 589.777 327.96 591.357 327.96C592.577 327.96 593.437 327.44 594.077 326.68L595.677 328.42C594.877 329.4 593.477 330.24 591.257 330.24ZM591.017 321.56C589.737 321.56 588.917 322.42 588.917 323.74V323.9H593.077V323.74C593.077 322.4 592.297 321.56 591.017 321.56ZM599.949 330H597.569V319.68H599.949V321.2H600.089C600.409 320.24 600.949 319.44 602.049 319.44C603.029 319.44 603.669 320.06 603.889 321.2H604.009C604.349 320.26 604.929 319.44 606.209 319.44C607.649 319.44 608.369 320.5 608.369 322.62V330H605.989V322.92C605.989 321.96 605.629 321.62 605.089 321.62C604.589 321.62 604.169 321.94 604.169 322.64V330H601.769V322.92C601.769 321.96 601.429 321.62 600.909 321.62C600.369 321.62 599.949 321.94 599.949 322.64V330ZM615.601 318.36C614.281 318.36 613.821 317.74 613.821 316.96V316.38C613.821 315.58 614.281 314.98 615.601 314.98C616.921 314.98 617.381 315.58 617.381 316.38V316.96C617.381 317.74 616.921 318.36 615.601 318.36ZM610.841 330V327.7H614.121V321.98H610.841V319.68H617.081V327.7H620.121V330H610.841ZM625.213 330H622.253V319.68H625.213V321.56H625.333C625.793 320.4 626.713 319.44 628.373 319.44C630.353 319.44 631.733 320.82 631.733 323.32V330H628.773V323.72C628.773 322.42 628.193 321.72 627.033 321.72C626.113 321.72 625.213 322.22 625.213 323.22V330ZM639.365 330.24C636.105 330.24 634.145 328.18 634.145 324.84C634.145 321.5 636.125 319.44 639.345 319.44C641.605 319.44 642.925 320.46 643.645 321.96L641.365 323.2C641.005 322.4 640.445 321.8 639.345 321.8C638.005 321.8 637.225 322.64 637.225 324V325.68C637.225 327.04 637.985 327.88 639.385 327.88C640.525 327.88 641.125 327.28 641.565 326.44L643.805 327.72C643.065 329.22 641.665 330.24 639.365 330.24ZM646.238 330V315.2H649.198V321.56H649.318C649.778 320.4 650.698 319.44 652.358 319.44C654.338 319.44 655.718 320.82 655.718 323.32V330H652.758V323.72C652.758 322.42 652.178 321.72 651.018 321.72C650.098 321.72 649.198 322.22 649.198 323.22V330H646.238Z" fill="#F9FAFB" fill-opacity="0.75"/>
<circle cx="672" cy="322" r="4" fill="#22C55E"/>
<path d="M516.88 272V246.872H533.548V251.3H522.28V257.06H532.36V261.488H522.28V272H516.88ZM549.518 268.616H549.302C548.894 269.672 548.246 270.572 547.358 271.316C546.494 272.06 545.318 272.432 543.83 272.432C542.942 272.432 542.126 272.288 541.382 272C540.638 271.688 540.002 271.232 539.474 270.632C538.946 270.032 538.526 269.3 538.214 268.436C537.926 267.572 537.782 266.576 537.782 265.448V253.424H543.11V264.728C543.11 267.128 544.154 268.328 546.242 268.328C546.65 268.328 547.046 268.28 547.43 268.184C547.838 268.064 548.186 267.896 548.474 267.68C548.786 267.44 549.038 267.152 549.23 266.816C549.422 266.48 549.518 266.084 549.518 265.628V253.424H554.846V272H549.518V268.616ZM559.62 267.86H565.308V249.5H559.62V245.36H570.636V267.86H576.324V272H559.62V267.86ZM581.206 267.86H586.894V249.5H581.206V245.36H592.222V267.86H597.91V272H581.206V267.86ZM605.384 263.576V258.464H616.904V263.576H605.384ZM632.334 272.432C630.222 272.432 628.386 272.084 626.826 271.388C625.266 270.692 624.006 269.744 623.046 268.544L626.178 265.088C627.09 266.096 628.086 266.84 629.166 267.32C630.27 267.8 631.386 268.04 632.514 268.04C633.81 268.04 634.794 267.752 635.466 267.176C636.138 266.6 636.474 265.772 636.474 264.692C636.474 263.804 636.21 263.132 635.682 262.676C635.178 262.22 634.314 261.896 633.09 261.704L630.462 261.272C628.206 260.888 626.574 260.06 625.566 258.788C624.558 257.492 624.054 255.92 624.054 254.072C624.054 251.648 624.846 249.776 626.43 248.456C628.014 247.112 630.234 246.44 633.09 246.44C635.034 246.44 636.726 246.74 638.166 247.34C639.606 247.94 640.77 248.756 641.658 249.788L638.598 253.208C637.926 252.464 637.134 251.888 636.222 251.48C635.31 251.048 634.278 250.832 633.126 250.832C630.702 250.832 629.49 251.828 629.49 253.82C629.49 254.684 629.754 255.332 630.282 255.764C630.834 256.196 631.722 256.52 632.946 256.736L635.574 257.204C637.614 257.564 639.186 258.332 640.29 259.508C641.394 260.684 641.946 262.268 641.946 264.26C641.946 265.436 641.742 266.528 641.334 267.536C640.926 268.52 640.314 269.384 639.498 270.128C638.682 270.848 637.674 271.412 636.474 271.82C635.298 272.228 633.918 272.432 632.334 272.432ZM655.756 272C653.836 272 652.408 271.496 651.472 270.488C650.536 269.48 650.068 268.196 650.068 266.636V257.564H645.028V253.424H648.304C649.096 253.424 649.66 253.268 649.996 252.956C650.332 252.644 650.5 252.068 650.5 251.228V246.872H655.396V253.424H662.632V257.564H655.396V267.86H662.632V272H655.756ZM682.634 272C681.53 272 680.642 271.724 679.97 271.172C679.298 270.596 678.902 269.78 678.782 268.724H678.602C678.266 269.948 677.594 270.872 676.586 271.496C675.602 272.12 674.39 272.432 672.95 272.432C671.15 272.432 669.698 271.952 668.594 270.992C667.514 270.008 666.974 268.64 666.974 266.888C666.974 264.944 667.682 263.504 669.098 262.568C670.514 261.632 672.59 261.164 675.326 261.164H678.314V260.228C678.314 259.124 678.05 258.296 677.522 257.744C677.018 257.168 676.154 256.88 674.93 256.88C673.802 256.88 672.89 257.096 672.194 257.528C671.498 257.96 670.898 258.524 670.394 259.22L667.478 256.628C668.102 255.572 669.074 254.708 670.394 254.036C671.738 253.34 673.454 252.992 675.542 252.992C678.086 252.992 680.066 253.58 681.482 254.756C682.922 255.908 683.642 257.66 683.642 260.012V268.148H685.694V272H682.634ZM674.966 268.94C675.902 268.94 676.694 268.712 677.342 268.256C677.99 267.8 678.314 267.14 678.314 266.276V264.044H675.47C673.286 264.044 672.194 264.776 672.194 266.24V266.96C672.194 267.608 672.446 268.1 672.95 268.436C673.454 268.772 674.126 268.94 674.966 268.94ZM698.244 272.432C696.78 272.432 695.46 272.216 694.284 271.784C693.132 271.328 692.148 270.68 691.332 269.84C690.54 269 689.928 267.98 689.496 266.78C689.064 265.58 688.848 264.224 688.848 262.712C688.848 261.2 689.064 259.844 689.496 258.644C689.928 257.444 690.54 256.424 691.332 255.584C692.148 254.744 693.132 254.108 694.284 253.676C695.46 253.22 696.768 252.992 698.208 252.992C700.248 252.992 701.88 253.412 703.104 254.252C704.352 255.068 705.3 256.16 705.948 257.528L701.844 259.76C701.508 259.04 701.064 258.44 700.512 257.96C699.984 257.48 699.216 257.24 698.208 257.24C696.984 257.24 696.036 257.6 695.364 258.32C694.716 259.016 694.392 259.976 694.392 261.2V264.224C694.392 265.448 694.716 266.42 695.364 267.14C696.036 267.836 697.008 268.184 698.28 268.184C699.312 268.184 700.116 267.944 700.692 267.464C701.292 266.984 701.796 266.36 702.204 265.592L706.236 267.896C705.564 269.264 704.58 270.368 703.284 271.208C702.012 272.024 700.332 272.432 698.244 272.432ZM710.613 245.36H715.941V260.48H716.193L718.677 257.564L722.565 253.424H728.685L721.485 260.768L729.441 272H723.105L717.705 263.792L715.941 265.556V272H710.613V245.36ZM754.325 272V246.872H770.381V251.3H759.725V257.06H770.021V261.488H759.725V267.572H770.381V272H754.325ZM775.371 272V253.424H780.699V256.808H780.915C781.131 256.28 781.395 255.788 781.707 255.332C782.019 254.876 782.391 254.48 782.823 254.144C783.279 253.784 783.795 253.508 784.371 253.316C784.971 253.1 785.643 252.992 786.387 252.992C787.275 252.992 788.091 253.148 788.835 253.46C789.579 253.748 790.215 254.192 790.743 254.792C791.271 255.392 791.679 256.124 791.967 256.988C792.279 257.852 792.435 258.848 792.435 259.976V272H787.107V260.696C787.107 258.296 786.063 257.096 783.975 257.096C783.567 257.096 783.159 257.156 782.751 257.276C782.367 257.372 782.019 257.54 781.707 257.78C781.395 257.996 781.143 258.272 780.951 258.608C780.783 258.944 780.699 259.34 780.699 259.796V272H775.371ZM815.605 273.872C815.605 275.84 814.777 277.292 813.121 278.228C811.465 279.164 808.861 279.632 805.309 279.632C803.533 279.632 802.069 279.524 800.917 279.308C799.765 279.116 798.841 278.828 798.145 278.444C797.473 278.06 796.993 277.604 796.705 277.076C796.441 276.548 796.309 275.972 796.309 275.348C796.309 274.292 796.621 273.488 797.245 272.936C797.869 272.408 798.745 272 799.873 271.712V271.496C799.081 271.256 798.445 270.92 797.965 270.488C797.509 270.032 797.281 269.396 797.281 268.58C797.281 267.668 797.581 266.996 798.181 266.564C798.805 266.132 799.621 265.796 800.629 265.556V265.34C799.525 264.812 798.661 264.068 798.037 263.108C797.437 262.148 797.137 260.984 797.137 259.616C797.137 258.536 797.329 257.588 797.713 256.772C798.097 255.932 798.637 255.236 799.333 254.684C800.053 254.132 800.905 253.712 801.889 253.424C802.873 253.136 803.977 252.992 805.201 252.992C806.377 252.992 807.469 253.124 808.477 253.388V252.38C808.477 251.66 808.729 251.06 809.233 250.58C809.737 250.1 810.433 249.86 811.321 249.86H814.597V253.748H810.133V254.072C811.141 254.6 811.921 255.332 812.473 256.268C813.049 257.18 813.337 258.296 813.337 259.616C813.337 260.696 813.145 261.644 812.761 262.46C812.377 263.276 811.825 263.972 811.105 264.548C810.385 265.1 809.521 265.52 808.513 265.808C807.529 266.096 806.425 266.24 805.201 266.24C804.649 266.24 804.121 266.216 803.617 266.168C803.113 266.096 802.633 266 802.177 265.88C801.913 266.024 801.685 266.204 801.493 266.42C801.325 266.636 801.241 266.912 801.241 267.248C801.241 267.536 801.313 267.764 801.457 267.932C801.601 268.1 801.793 268.232 802.033 268.328C802.297 268.4 802.597 268.448 802.933 268.472C803.269 268.496 803.617 268.508 803.977 268.508H808.225C809.545 268.508 810.673 268.64 811.609 268.904C812.545 269.168 813.313 269.54 813.913 270.02C814.513 270.5 814.945 271.064 815.209 271.712C815.473 272.36 815.605 273.08 815.605 273.872ZM810.565 274.268C810.565 273.788 810.373 273.404 809.989 273.116C809.605 272.852 808.873 272.72 807.793 272.72H801.421C800.941 273.128 800.701 273.632 800.701 274.232C800.701 274.808 800.941 275.276 801.421 275.636C801.925 276.02 802.765 276.212 803.941 276.212H807.073C808.297 276.212 809.185 276.044 809.737 275.708C810.289 275.372 810.565 274.892 810.565 274.268ZM805.201 262.856C806.281 262.856 807.061 262.592 807.541 262.064C808.045 261.536 808.297 260.864 808.297 260.048V259.184C808.297 258.368 808.045 257.696 807.541 257.168C807.061 256.64 806.281 256.376 805.201 256.376C804.145 256.376 803.377 256.64 802.897 257.168C802.417 257.696 802.177 258.368 802.177 259.184V260.048C802.177 260.864 802.417 261.536 802.897 262.064C803.377 262.592 804.145 262.856 805.201 262.856ZM828.155 251.048C826.955 251.048 826.115 250.808 825.635 250.328C825.179 249.824 824.951 249.224 824.951 248.528V247.484C824.951 246.764 825.179 246.164 825.635 245.684C826.115 245.204 826.955 244.964 828.155 244.964C829.355 244.964 830.183 245.204 830.639 245.684C831.119 246.164 831.359 246.764 831.359 247.484V248.528C831.359 249.224 831.119 249.824 830.639 250.328C830.183 250.808 829.355 251.048 828.155 251.048ZM819.587 267.86H825.491V257.564H819.587V253.424H830.819V267.86H836.291V272H819.587V267.86ZM840.129 272V253.424H845.457V256.808H845.673C845.889 256.28 846.153 255.788 846.465 255.332C846.777 254.876 847.149 254.48 847.581 254.144C848.037 253.784 848.553 253.508 849.129 253.316C849.729 253.1 850.401 252.992 851.145 252.992C852.033 252.992 852.849 253.148 853.593 253.46C854.337 253.748 854.973 254.192 855.501 254.792C856.029 255.392 856.437 256.124 856.725 256.988C857.037 257.852 857.193 258.848 857.193 259.976V272H851.865V260.696C851.865 258.296 850.821 257.096 848.733 257.096C848.325 257.096 847.917 257.156 847.509 257.276C847.125 257.372 846.777 257.54 846.465 257.78C846.153 257.996 845.901 258.272 845.709 258.608C845.541 258.944 845.457 259.34 845.457 259.796V272H840.129ZM870.679 272.432C867.559 272.432 865.195 271.568 863.587 269.84C861.979 268.112 861.175 265.76 861.175 262.784C861.175 261.272 861.379 259.916 861.787 258.716C862.219 257.492 862.819 256.46 863.587 255.62C864.379 254.756 865.327 254.108 866.431 253.676C867.559 253.22 868.819 252.992 870.211 252.992C871.603 252.992 872.851 253.22 873.955 253.676C875.059 254.108 875.995 254.732 876.763 255.548C877.531 256.364 878.119 257.36 878.527 258.536C878.959 259.688 879.175 260.984 879.175 262.424V264.008H866.467V264.332C866.467 265.532 866.839 266.504 867.583 267.248C868.327 267.968 869.419 268.328 870.859 268.328C871.963 268.328 872.911 268.124 873.703 267.716C874.495 267.284 875.179 266.72 875.755 266.024L878.635 269.156C877.915 270.044 876.907 270.812 875.611 271.46C874.315 272.108 872.671 272.432 870.679 272.432ZM870.247 256.808C869.095 256.808 868.171 257.168 867.475 257.888C866.803 258.584 866.467 259.532 866.467 260.732V261.02H873.955V260.732C873.955 259.508 873.619 258.548 872.947 257.852C872.299 257.156 871.399 256.808 870.247 256.808ZM892.265 272.432C889.145 272.432 886.781 271.568 885.173 269.84C883.565 268.112 882.761 265.76 882.761 262.784C882.761 261.272 882.965 259.916 883.373 258.716C883.805 257.492 884.405 256.46 885.173 255.62C885.965 254.756 886.913 254.108 888.017 253.676C889.145 253.22 890.405 252.992 891.797 252.992C893.189 252.992 894.437 253.22 895.541 253.676C896.645 254.108 897.581 254.732 898.349 255.548C899.117 256.364 899.705 257.36 900.113 258.536C900.545 259.688 900.761 260.984 900.761 262.424V264.008H888.053V264.332C888.053 265.532 888.425 266.504 889.169 267.248C889.913 267.968 891.005 268.328 892.445 268.328C893.549 268.328 894.497 268.124 895.289 267.716C896.081 267.284 896.765 266.72 897.341 266.024L900.221 269.156C899.501 270.044 898.493 270.812 897.197 271.46C895.901 272.108 894.257 272.432 892.265 272.432ZM891.833 256.808C890.681 256.808 889.757 257.168 889.061 257.888C888.389 258.584 888.053 259.532 888.053 260.732V261.02H895.541V260.732C895.541 259.508 895.205 258.548 894.533 257.852C893.885 257.156 892.985 256.808 891.833 256.808ZM905.211 267.86H909.495V257.564H905.211V253.424H914.823V258.68H915.075C915.243 258.008 915.471 257.36 915.759 256.736C916.071 256.088 916.455 255.524 916.911 255.044C917.391 254.54 917.967 254.144 918.639 253.856C919.311 253.568 920.103 253.424 921.015 253.424H922.779V258.32H918.819C917.499 258.32 916.503 258.716 915.831 259.508C915.159 260.276 914.823 261.224 914.823 262.352V267.86H920.943V272H905.211V267.86Z" fill="white" fill-opacity="0.85"/>
<path d="M622.072 195V161.496H632.872C641.848 161.496 646.168 167.496 646.168 178.248C646.168 189 641.848 195 632.872 195H622.072ZM629.176 189.336H632.392C636.664 189.336 638.584 186.504 638.584 181.272V175.176C638.584 169.992 636.664 167.16 632.392 167.16H629.176V189.336ZM675.237 195H671.157C668.229 195 666.309 193.416 666.021 190.632H665.781C664.917 193.848 662.037 195.576 658.245 195.576C653.445 195.576 650.277 192.84 650.277 188.184C650.277 183 654.165 180.552 661.413 180.552H665.397V179.304C665.397 176.376 664.149 174.84 660.885 174.84C657.909 174.84 656.181 176.136 654.837 177.96L650.949 174.504C652.581 171.72 656.181 169.656 661.701 169.656C668.469 169.656 672.501 172.776 672.501 179.016V189.864H675.237V195ZM660.933 190.92C663.429 190.92 665.397 189.672 665.397 187.368V184.392H661.605C658.773 184.392 657.237 185.4 657.237 187.32V188.28C657.237 190.008 658.677 190.92 660.933 190.92ZM679.827 195L676.899 170.232H682.803L684.579 190.296H685.059L687.987 170.232H694.227L697.107 190.296H697.587L699.411 170.232H705.027L702.099 195H693.651L691.203 177.912H690.723L688.275 195H679.827ZM721.28 167.064C718.112 167.064 717.008 165.576 717.008 163.704V162.312C717.008 160.392 718.112 158.952 721.28 158.952C724.448 158.952 725.552 160.392 725.552 162.312V163.704C725.552 165.576 724.448 167.064 721.28 167.064ZM709.856 195V189.48H717.728V175.752H709.856V170.232H724.832V189.48H732.128V195H709.856ZM759.613 195H750.445C745.309 195 742.861 192.024 742.861 187.848V175.752H736.141V170.232H740.509C742.621 170.232 743.437 169.512 743.437 167.304V161.496H749.965V170.232H759.613V175.752H749.965V189.48H759.613V195ZM794.328 161.496H801.528V182.712C801.528 186.984 801.864 189.768 806.088 189.768C810.312 189.768 810.648 186.984 810.648 182.712V161.496H817.848V181.752C817.848 190.92 815.832 195.576 806.088 195.576C796.344 195.576 794.328 190.92 794.328 181.752V161.496Z" fill="white" fill-opacity="0.95"/>
</g>
<defs>
<linearGradient id="paint0_linear_1_2" x1="720" y1="0" x2="720" y2="480" gradientUnits="userSpaceOnUse">
<stop stop-color="#22C55E"/>
<stop offset="1" stop-color="#A3E635"/>
</linearGradient>
<clipPath id="clip0_1_2">
<rect width="1440" height="480" fill="white"/>
</clipPath>
<clipPath id="clip1_1_2">
<rect width="50" height="50" fill="white" transform="translate(388 297)"/>
</clipPath>
<clipPath id="clip2_1_2">
<rect width="50" height="50" fill="white" transform="translate(956 391)"/>
</clipPath>
<clipPath id="clip3_1_2">
<rect width="50" height="50" fill="white" transform="translate(435 37)"/>
</clipPath>
<clipPath id="clip4_1_2">
<rect width="35" height="35" fill="white" transform="translate(1176 247)"/>
</clipPath>
<clipPath id="clip5_1_2">
<rect width="35" height="35" fill="white" transform="translate(1140 37)"/>
</clipPath>
<clipPath id="clip6_1_2">
<rect width="35" height="35" fill="white" transform="translate(255 381)"/>
</clipPath>
<clipPath id="clip7_1_2">
<rect width="50" height="50" fill="white" transform="translate(993 111)"/>
</clipPath>
<clipPath id="clip8_1_2">
<rect width="35" height="35" fill="white" transform="translate(237 129)"/>
</clipPath>
</defs>
</svg>
