<svg width="1440" height="480" viewBox="0 0 1440 480" fill="none" xmlns="http://www.w3.org/2000/svg">
<rect width="1440" height="480" fill="url(#paint0_linear_1_2)"/>
<rect x="2" y="2" width="1436" height="476" fill="#000A05"/>
<g clip-path="url(#clip0_1_2)">
<path d="M654.516 270.075H635.531L631.597 276.855L627.662 270.075H608.677L631.597 309.764L654.516 270.075ZM631.597 293.892L618.533 271.259H626.994L631.597 279.243L636.2 271.259H644.661L631.597 293.892Z" fill="#4FC08D"/>
</g>
<g clip-path="url(#clip1_1_2)">
<path d="M724.346 289.927C724.346 291.059 723.887 292.145 723.07 292.946C722.254 293.747 721.146 294.197 719.99 294.198C718.835 294.198 717.726 293.748 716.909 292.947C716.092 292.146 715.632 291.06 715.632 289.927C715.632 288.795 716.091 287.709 716.908 286.908C717.725 286.107 718.833 285.657 719.988 285.656C721.144 285.656 722.252 286.106 723.07 286.907C723.887 287.708 724.346 288.794 724.346 289.927ZM729.507 269.51C726.884 269.51 723.452 271.343 719.981 274.518C716.511 271.36 713.077 269.548 710.456 269.548C709.657 269.548 708.93 269.725 708.301 270.079C705.621 271.593 705.021 276.313 706.404 282.236C700.472 284.031 696.613 286.902 696.613 289.927C696.613 292.964 700.491 295.842 706.441 297.624C705.069 303.57 705.681 308.297 708.367 309.81C708.991 310.167 709.712 310.335 710.515 310.335C713.136 310.335 716.57 308.501 720.041 305.323C723.51 308.482 726.944 310.295 729.565 310.295C730.364 310.295 731.091 310.123 731.721 309.769C734.399 308.257 735.001 303.537 733.617 297.613C739.528 295.833 743.387 292.956 743.387 289.927C743.387 286.89 739.509 284.012 733.559 282.226C734.931 276.286 734.319 271.555 731.633 270.041C731.013 269.689 730.294 269.512 729.507 269.51ZM729.497 271.591V271.603C729.936 271.603 730.288 271.687 730.585 271.846C731.883 272.575 732.446 275.35 732.007 278.92C731.902 279.799 731.731 280.725 731.52 281.67C729.649 281.22 727.611 280.874 725.465 280.65C724.179 278.922 722.843 277.352 721.499 275.977C724.601 273.15 727.515 271.599 729.499 271.593L729.497 271.591ZM710.456 271.63C712.428 271.63 715.356 273.173 718.466 275.984C717.129 277.36 715.796 278.92 714.529 280.648C712.372 280.872 710.331 281.218 708.462 281.676C708.244 280.74 708.082 279.835 707.967 278.964C707.519 275.396 708.073 272.623 709.359 271.884C709.729 271.712 710.138 271.639 710.456 271.63ZM719.971 277.455C720.858 278.349 721.744 279.35 722.621 280.442C721.764 280.404 720.887 280.377 720 280.377C719.104 280.377 718.217 280.396 717.349 280.442C718.207 279.35 719.094 278.351 719.971 277.455ZM720 282.471C721.442 282.471 722.879 282.535 724.292 282.648C725.083 283.76 725.855 284.946 726.597 286.201C727.322 287.423 727.981 288.664 728.581 289.917C727.981 291.168 727.322 292.419 726.607 293.642C725.866 294.902 725.1 296.102 724.307 297.213C722.888 297.334 721.45 297.401 720 297.401C718.558 297.401 717.121 297.334 715.708 297.223C714.917 296.111 714.145 294.923 713.403 293.67C712.678 292.448 712.019 291.207 711.419 289.954C712.009 288.699 712.678 287.446 713.393 286.222C714.134 284.961 714.9 283.765 715.693 282.654C717.112 282.532 718.55 282.467 720 282.467V282.471ZM712.916 282.956C712.448 283.676 711.98 284.413 711.544 285.171C711.105 285.916 710.696 286.665 710.306 287.413C709.79 286.161 709.351 284.911 708.989 283.695C710.236 283.408 711.551 283.152 712.916 282.956ZM727.065 282.956C728.419 283.152 729.725 283.395 730.974 283.695C730.624 284.902 730.185 286.143 729.688 287.387C729.298 286.642 728.889 285.891 728.441 285.144C728.002 284.396 727.535 283.666 727.067 282.956H727.065ZM733.034 284.245C733.978 284.531 734.874 284.85 735.714 285.196C739.09 286.609 741.273 288.458 741.273 289.925C741.263 291.392 739.08 293.248 735.704 294.652C734.886 294.996 733.989 295.305 733.064 295.594C732.518 293.764 731.805 291.858 730.92 289.902C731.797 287.96 732.498 286.063 733.034 284.241V284.245ZM706.929 284.253C707.47 286.086 708.186 287.99 709.072 289.944C708.195 291.887 707.49 293.783 706.956 295.605C706.013 295.319 705.116 294.998 704.286 294.65C700.91 293.243 698.727 291.392 698.727 289.925C698.727 288.458 700.91 286.598 704.286 285.196C705.104 284.852 706.001 284.543 706.929 284.253ZM729.688 292.427C730.205 293.682 730.643 294.933 731.006 296.148C729.758 296.448 728.441 296.702 727.077 296.893C727.544 296.176 728.012 295.437 728.451 294.681C728.889 293.936 729.296 293.176 729.688 292.427ZM710.306 292.465C710.696 293.214 711.105 293.961 711.553 294.709C712.002 295.454 712.46 296.184 712.927 296.893C711.573 296.698 710.267 296.453 709.018 296.155C709.369 294.952 709.809 293.707 710.304 292.463L710.306 292.465ZM731.538 298.17C731.756 299.112 731.927 300.019 732.033 300.888C732.481 304.456 731.927 307.229 730.641 307.97C730.355 308.142 729.982 308.215 729.544 308.215C727.572 308.215 724.644 306.673 721.534 303.86C722.871 302.485 724.204 300.926 725.471 299.2C727.628 298.974 729.669 298.629 731.538 298.17ZM708.482 298.189C710.353 298.636 712.391 298.982 714.537 299.205C715.823 300.934 717.158 302.504 718.503 303.877C715.395 306.71 712.477 308.261 710.493 308.261C710.064 308.251 709.702 308.165 709.415 308.008C708.117 307.283 707.554 304.506 707.993 300.936C708.098 300.057 708.271 299.133 708.482 298.189ZM717.369 299.412C718.226 299.45 719.104 299.477 719.99 299.477C720.887 299.477 721.774 299.458 722.641 299.412C721.783 300.504 720.897 301.503 720.02 302.401C719.133 301.503 718.246 300.504 717.369 299.412Z" fill="#61DAFB"/>
</g>
<g clip-path="url(#clip2_1_2)">
<path d="M1078.38 267.344L1080.1 267.726L1081.49 268.222L1082.62 268.795L1083.48 269.407L1084.13 270.056L1084.6 270.705L1084.91 271.336L1085.1 271.909L1085.18 272.405L1085.22 272.787L1085.2 273.035V283.235L1085.1 284.438L1084.85 285.488L1084.45 286.367L1083.95 287.093L1083.38 287.685L1082.75 288.162L1082.08 288.525L1081.41 288.792L1080.78 288.983L1080.21 289.117L1079.71 289.194L1079.31 289.232H1067.91L1066.59 289.327L1065.47 289.595L1064.51 290.015L1063.73 290.531L1063.1 291.142L1062.58 291.81L1062.2 292.498L1061.91 293.204L1061.72 293.873L1061.59 294.484L1061.51 295L1061.47 295.401V301.245H1057.22L1056.81 301.188L1056.28 301.054L1055.67 300.825L1055 300.481L1054.31 299.985L1053.62 299.297L1052.96 298.419L1052.35 297.292L1051.81 295.897L1051.41 294.217L1051.14 292.211L1051.05 289.862L1051.16 287.532L1051.47 285.546L1051.93 283.884L1052.54 282.528L1053.22 281.439L1053.99 280.599L1054.79 279.969L1055.59 279.51L1056.36 279.205L1057.04 279.014L1057.65 278.918L1058.11 278.899H1058.42L1058.53 278.918H1074.12V277.333H1062.96L1062.95 272.08L1062.91 271.374L1063 270.724L1063.21 270.132L1063.54 269.598L1064.02 269.101L1064.61 268.662L1065.33 268.28L1066.17 267.936L1067.15 267.649L1068.26 267.42L1069.48 267.229L1070.83 267.115L1072.3 267.038L1073.91 267L1076.33 267.095L1078.38 267.344ZM1066.35 271.125L1065.91 271.756L1065.75 272.539L1065.91 273.322L1066.35 273.971L1066.98 274.391L1067.76 274.563L1068.54 274.391L1069.17 273.971L1069.61 273.322L1069.76 272.539L1069.61 271.756L1069.17 271.125L1068.54 270.705L1067.76 270.533L1066.98 270.705L1066.35 271.125ZM1091.35 278.67L1091.88 278.784L1092.49 279.014L1093.16 279.357L1093.85 279.873L1094.54 280.542L1095.2 281.439L1095.82 282.566L1096.35 283.96L1096.75 285.641L1097.02 287.627L1097.11 289.977L1097 292.326L1096.69 294.312L1096.24 295.955L1095.62 297.311L1094.94 298.4L1094.17 299.259L1093.37 299.889L1092.57 300.348L1091.8 300.653L1091.12 300.825L1090.51 300.921L1090.05 300.959L1089.74 300.94H1074.04V302.506H1085.2L1085.22 307.777L1085.25 308.465L1085.16 309.114L1084.95 309.706L1084.62 310.26L1084.15 310.738L1083.55 311.196L1082.83 311.578L1081.99 311.903L1081.01 312.189L1079.91 312.438L1078.68 312.61L1077.33 312.743L1075.86 312.82L1074.25 312.839L1071.83 312.762L1069.78 312.495L1068.06 312.113L1066.67 311.635L1065.54 311.062L1064.68 310.432L1064.03 309.783L1063.56 309.133L1063.25 308.503L1063.06 307.93L1062.98 307.453L1062.95 307.071L1062.96 306.822V296.623L1063.06 295.401L1063.31 294.37L1063.71 293.491L1064.21 292.765L1064.78 292.154L1065.41 291.696L1066.08 291.314L1066.75 291.046L1067.38 290.855L1067.95 290.741L1068.45 290.664L1068.85 290.626L1069.1 290.607H1080.25L1081.57 290.511L1082.69 290.244L1083.65 289.843L1084.43 289.308L1085.06 288.697L1085.58 288.029L1085.96 287.341L1086.25 286.653L1086.44 285.985L1086.57 285.374L1086.65 284.839L1086.69 284.438V278.593H1090.68L1090.95 278.612L1091.35 278.67ZM1078.99 305.887L1078.55 306.517L1078.4 307.3L1078.55 308.083L1078.99 308.713L1079.62 309.153L1080.4 309.305L1081.19 309.153L1081.82 308.713L1082.26 308.083L1082.41 307.3L1082.26 306.517L1081.82 305.887L1081.19 305.447L1080.4 305.294L1079.62 305.447L1078.99 305.887Z" fill="#3776AB"/>
</g>
<g clip-path="url(#clip3_1_2)">
<path d="M896.808 276.168C890.572 276.168 886.674 279.224 885.115 285.335C887.454 282.28 890.182 281.134 893.3 281.898C895.08 282.333 896.35 283.597 897.759 284.999C900.053 287.28 902.706 289.919 908.502 289.919C914.738 289.919 918.636 286.863 920.195 280.752C917.857 283.808 915.128 284.953 912.01 284.189C910.231 283.754 908.96 282.49 907.551 281.088C905.259 278.807 902.606 276.168 896.808 276.168ZM885.115 289.919C878.878 289.919 874.98 292.975 873.421 299.087C875.76 296.031 878.488 294.885 881.607 295.649C883.386 296.085 884.657 297.349 886.066 298.751C888.36 301.031 891.012 303.671 896.808 303.671C903.045 303.671 906.943 300.615 908.502 294.503C906.163 297.559 903.435 298.705 900.316 297.941C898.537 297.506 897.266 296.241 895.857 294.839C893.565 292.559 890.913 289.919 885.115 289.919Z" fill="#06B6D4"/>
</g>
<g clip-path="url(#clip4_1_2)">
<path d="M811.2 304.873H828.24C828.781 304.873 829.313 304.735 829.782 304.473C830.247 304.213 830.637 303.835 830.91 303.378C831.18 302.926 831.322 302.409 831.323 301.882C831.322 301.356 831.179 300.839 830.909 300.387L819.465 281.161C819.191 280.703 818.802 280.326 818.337 280.066C817.866 279.803 817.335 279.665 816.795 279.665C816.254 279.665 815.723 279.804 815.254 280.066C814.788 280.326 814.399 280.703 814.126 281.161L811.2 286.08L805.479 276.461C805.205 276.003 804.816 275.626 804.35 275.366C803.879 275.103 803.348 274.965 802.808 274.966C802.267 274.966 801.736 275.104 801.267 275.366C800.801 275.626 800.412 276.003 800.138 276.461L785.898 300.387C785.628 300.839 785.485 301.356 785.484 301.882C785.484 302.407 785.626 302.923 785.896 303.378C786.17 303.835 786.559 304.213 787.025 304.473C787.494 304.735 788.025 304.873 788.567 304.873H799.263C803.501 304.873 806.626 303.068 808.777 299.545L813.998 290.774L816.795 286.08L825.188 300.18H813.998L811.2 304.873ZM799.088 300.175L791.624 300.173L802.813 281.375L808.397 290.774L804.658 297.056C803.23 299.342 801.608 300.175 799.088 300.175Z" fill="#00DC82"/>
</g>
<g clip-path="url(#clip5_1_2)">
<path d="M985.206 312.839C984.593 312.839 983.982 312.678 983.445 312.367L977.837 309.049C977.001 308.581 977.409 308.415 977.684 308.318C978.802 307.93 979.027 307.84 980.221 307.164C980.345 307.094 980.509 307.12 980.637 307.197L984.946 309.754C985.103 309.84 985.322 309.84 985.466 309.754L1002.26 300.059C1002.42 299.969 1002.52 299.79 1002.52 299.605V280.219C1002.52 280.03 1002.42 279.852 1002.26 279.757L985.468 270.069C985.313 269.98 985.107 269.98 984.95 270.069L968.163 279.758C968.001 279.852 967.898 280.035 967.898 280.219V299.605C967.898 299.79 968.001 299.966 968.163 300.054L972.764 302.712C975.261 303.961 976.791 302.491 976.791 301.012V281.873C976.791 281.602 977.008 281.39 977.28 281.39H979.409C979.675 281.39 979.896 281.603 979.896 281.873V301.012C979.896 304.345 978.082 306.255 974.923 306.255C973.952 306.255 973.187 306.255 971.053 305.203L966.645 302.668C965.556 302.04 964.884 300.863 964.884 299.605V280.219C964.884 278.96 965.558 277.784 966.645 277.157L983.443 267.451C984.507 266.849 985.918 266.849 986.973 267.451L1003.77 277.157C1004.86 277.785 1005.53 278.96 1005.53 280.219V299.605C1005.53 300.863 1004.86 302.036 1003.77 302.668L986.973 312.367C986.438 312.678 985.829 312.839 985.206 312.839ZM998.768 293.726C998.768 290.097 996.316 289.131 991.153 288.449C985.937 287.759 985.406 287.402 985.406 286.182C985.406 285.173 985.855 283.827 989.719 283.827C993.17 283.827 994.442 284.57 994.966 286.896C995.012 287.116 995.212 287.276 995.437 287.276H997.617C997.752 287.276 997.88 287.217 997.972 287.121C998.064 287.018 998.113 286.886 998.1 286.747C997.762 282.74 995.099 280.872 989.719 280.872C984.929 280.872 982.072 282.893 982.072 286.283C982.072 289.959 984.914 290.976 989.511 291.43C995.012 291.969 995.437 292.773 995.437 293.854C995.437 295.731 993.93 296.532 990.391 296.532C985.947 296.532 984.969 295.416 984.641 293.204C984.602 292.968 984.4 292.794 984.157 292.794H981.986C981.716 292.794 981.501 293.008 981.501 293.277C981.501 296.108 983.04 299.481 990.391 299.481C995.716 299.482 998.768 297.387 998.768 293.726Z" fill="#339933"/>
</g>
<g clip-path="url(#clip6_1_2)">
<path d="M343 267H388.839V312.839H343V267ZM385.084 301.906C384.75 299.815 383.388 298.058 379.348 296.419C377.942 295.76 376.38 295.302 375.916 294.242C375.742 293.611 375.715 293.267 375.828 292.895C376.115 291.661 377.576 291.291 378.722 291.634C379.467 291.864 380.154 292.437 380.586 293.353C382.561 292.062 382.561 292.062 383.938 291.205C383.422 290.403 383.166 290.057 382.819 289.715C381.615 288.368 380.013 287.681 377.406 287.74L376.059 287.91C374.768 288.225 373.538 288.913 372.793 289.83C370.616 292.295 371.244 296.593 373.88 298.369C376.487 300.317 380.299 300.745 380.786 302.58C381.245 304.815 379.125 305.531 377.031 305.273C375.482 304.93 374.625 304.154 373.679 302.722L370.184 304.729C370.585 305.646 371.044 306.045 371.731 306.847C375.055 310.201 383.363 310.029 384.855 304.93C384.91 304.758 385.313 303.583 384.996 301.778L385.084 301.906ZM367.927 288.069H363.633C363.633 291.77 363.616 295.449 363.616 299.156C363.616 301.509 363.736 303.669 363.352 304.334C362.722 305.65 361.099 305.482 360.361 305.25C359.605 304.876 359.221 304.36 358.776 303.617C358.656 303.417 358.566 303.243 358.534 303.243L355.048 305.392C355.63 306.595 356.48 307.63 357.577 308.289C359.21 309.263 361.404 309.578 363.702 309.063C365.197 308.631 366.487 307.743 367.161 306.368C368.135 304.592 367.929 302.414 367.919 299.977C367.942 296.054 367.919 292.129 367.919 288.176L367.927 288.069Z" fill="#F7DF1E"/>
</g>
<g clip-path="url(#clip7_1_2)">
<path d="M434.736 267H474.845L471.197 308.184L454.746 312.839L438.39 308.182L434.736 267ZM448.165 285.622L447.722 280.431L466.934 280.436L467.373 275.429L442.208 275.423L443.541 290.722H460.971L460.348 297.265L454.79 298.801L449.146 297.254L448.787 293.224H443.804L444.435 301.19L454.79 303.959L465.064 301.203L466.485 285.624H448.165V285.622Z" fill="#E34F26"/>
</g>
<g clip-path="url(#clip8_1_2)">
<path d="M522.73 267H563.657L559.935 308.184L543.149 312.839L526.456 308.182L522.73 267ZM556.037 275.429L530.35 275.423L530.765 280.431L550.498 280.435L550.001 285.622H537.06L537.528 290.536H549.576L548.863 297.265L543.192 298.801L537.431 297.254L537.064 293.224H531.978L532.543 300.586L543.194 303.839L553.665 300.917L556.037 275.429Z" fill="#1572B6"/>
</g>
<path d="M670.3 392V377.2H673.26V383.56H673.38C673.84 382.4 674.76 381.44 676.42 381.44C678.4 381.44 679.78 382.82 679.78 385.32V392H676.82V385.72C676.82 384.42 676.24 383.72 675.08 383.72C674.16 383.72 673.26 384.22 673.26 385.22V392H670.3ZM691.612 392H687.792C685.652 392 684.632 390.76 684.632 389.02V383.98H681.832V381.68H683.652C684.532 381.68 684.872 381.38 684.872 380.46V378.04H687.592V381.68H691.612V383.98H687.592V389.7H691.612V392ZM703.604 392H699.784C697.644 392 696.624 390.76 696.624 389.02V383.98H693.824V381.68H695.644C696.524 381.68 696.864 381.38 696.864 380.46V378.04H699.584V381.68H703.604V383.98H699.584V389.7H703.604V392ZM706.157 396V381.68H709.117V383.56H709.257C709.777 382.32 710.657 381.44 712.317 381.44C714.597 381.44 716.197 383.1 716.197 386.84C716.197 390.58 714.597 392.24 712.317 392.24C710.657 392.24 709.777 391.36 709.257 390.12H709.117V396H706.157ZM711.037 389.94C712.357 389.94 713.117 389.08 713.117 387.64V386.04C713.117 384.6 712.357 383.74 711.037 383.74C709.997 383.74 709.117 384.24 709.117 385.32V388.36C709.117 389.44 709.997 389.94 711.037 389.94ZM722.849 392.24C720.569 392.24 718.789 391.5 717.949 390.3L719.609 388.76C720.409 389.64 721.489 390.16 722.869 390.16C724.029 390.16 724.749 389.8 724.749 389.06C724.749 388.48 724.269 388.3 723.469 388.18L721.809 387.92C719.969 387.64 718.509 386.86 718.509 384.9C718.509 382.74 720.249 381.44 723.229 381.44C725.249 381.44 726.669 382.02 727.529 383.02L726.049 384.7C725.449 384.04 724.469 383.52 723.129 383.52C722.009 383.52 721.409 383.88 721.409 384.56C721.409 385.16 721.889 385.34 722.689 385.46L724.329 385.72C726.189 386 727.649 386.78 727.649 388.74C727.649 390.88 725.909 392.24 722.849 392.24ZM734.961 392.24C733.461 392.24 732.861 391.48 732.861 390.58V389.88C732.861 388.98 733.461 388.22 734.961 388.22C736.461 388.22 737.061 388.98 737.061 389.88V390.58C737.061 391.48 736.461 392.24 734.961 392.24ZM734.961 385.46C733.461 385.46 732.861 384.7 732.861 383.8V383.1C732.861 382.2 733.461 381.44 734.961 381.44C736.461 381.44 737.061 382.2 737.061 383.1V383.8C737.061 384.7 736.461 385.46 734.961 385.46ZM745.073 394.76H742.413L748.833 376.8H751.493L745.073 394.76ZM757.065 394.76H754.405L760.825 376.8H763.485L757.065 394.76ZM770.938 392.24C767.718 392.24 765.758 390.18 765.758 386.84C765.758 383.5 767.718 381.44 770.938 381.44C774.158 381.44 776.118 383.5 776.118 386.84C776.118 390.18 774.158 392.24 770.938 392.24ZM770.938 390.04C772.258 390.04 773.058 389.18 773.058 387.66V386.02C773.058 384.5 772.258 383.64 770.938 383.64C769.618 383.64 768.818 384.5 768.818 386.02V387.66C768.818 389.18 769.618 390.04 770.938 390.04ZM781.19 392H778.23V381.68H781.19V383.56H781.31C781.77 382.4 782.69 381.44 784.35 381.44C786.33 381.44 787.71 382.82 787.71 385.32V392H784.75V385.72C784.75 384.42 784.17 383.72 783.01 383.72C782.09 383.72 781.19 384.22 781.19 385.22V392ZM795.202 392.24C791.742 392.24 789.922 390.18 789.922 386.88C789.922 383.5 791.842 381.44 794.942 381.44C798.022 381.44 799.922 383.46 799.922 386.68V387.56H792.862V387.74C792.862 389.06 793.722 389.96 795.302 389.96C796.522 389.96 797.382 389.44 798.022 388.68L799.622 390.42C798.822 391.4 797.422 392.24 795.202 392.24ZM794.962 383.56C793.682 383.56 792.862 384.42 792.862 385.74V385.9H797.022V385.74C797.022 384.4 796.242 383.56 794.962 383.56ZM803.894 392H801.514V381.68H803.894V383.2H804.034C804.354 382.24 804.894 381.44 805.994 381.44C806.974 381.44 807.614 382.06 807.834 383.2H807.954C808.294 382.26 808.874 381.44 810.154 381.44C811.594 381.44 812.314 382.5 812.314 384.62V392H809.934V384.92C809.934 383.96 809.574 383.62 809.034 383.62C808.534 383.62 808.114 383.94 808.114 384.64V392H805.714V384.92C805.714 383.96 805.374 383.62 804.854 383.62C804.314 383.62 803.894 383.94 803.894 384.64V392ZM819.546 380.36C818.226 380.36 817.766 379.74 817.766 378.96V378.38C817.766 377.58 818.226 376.98 819.546 376.98C820.866 376.98 821.326 377.58 821.326 378.38V378.96C821.326 379.74 820.866 380.36 819.546 380.36ZM814.786 392V389.7H818.066V383.98H814.786V381.68H821.026V389.7H824.066V392H814.786ZM829.158 392H826.198V381.68H829.158V383.56H829.278C829.738 382.4 830.658 381.44 832.318 381.44C834.298 381.44 835.678 382.82 835.678 385.32V392H832.718V385.72C832.718 384.42 832.138 383.72 830.978 383.72C830.058 383.72 829.158 384.22 829.158 385.22V392ZM843.311 392.24C840.051 392.24 838.091 390.18 838.091 386.84C838.091 383.5 840.071 381.44 843.291 381.44C845.551 381.44 846.871 382.46 847.591 383.96L845.311 385.2C844.951 384.4 844.391 383.8 843.291 383.8C841.951 383.8 841.171 384.64 841.171 386V387.68C841.171 389.04 841.931 389.88 843.331 389.88C844.471 389.88 845.071 389.28 845.511 388.44L847.751 389.72C847.011 391.22 845.611 392.24 843.311 392.24ZM850.183 392V377.2H853.143V383.56H853.263C853.723 382.4 854.643 381.44 856.303 381.44C858.283 381.44 859.663 382.82 859.663 385.32V392H856.703V385.72C856.703 384.42 856.123 383.72 854.963 383.72C854.043 383.72 853.143 384.22 853.143 385.22V392H850.183ZM866.875 392.24C865.375 392.24 864.775 391.48 864.775 390.58V389.88C864.775 388.98 865.375 388.22 866.875 388.22C868.375 388.22 868.975 388.98 868.975 389.88V390.58C868.975 391.48 868.375 392.24 866.875 392.24ZM880.727 392V390.12H880.587C880.067 391.36 879.187 392.24 877.527 392.24C875.247 392.24 873.647 390.58 873.647 386.84C873.647 383.1 875.247 381.44 877.527 381.44C879.187 381.44 880.067 382.32 880.587 383.56H880.727V377.2H883.687V392H880.727ZM878.807 389.94C879.847 389.94 880.727 389.44 880.727 388.36V385.32C880.727 384.24 879.847 383.74 878.807 383.74C877.487 383.74 876.727 384.6 876.727 386.04V387.64C876.727 389.08 877.487 389.94 878.807 389.94ZM891.139 392.24C887.679 392.24 885.859 390.18 885.859 386.88C885.859 383.5 887.779 381.44 890.879 381.44C893.959 381.44 895.859 383.46 895.859 386.68V387.56H888.799V387.74C888.799 389.06 889.659 389.96 891.239 389.96C892.459 389.96 893.319 389.44 893.959 388.68L895.559 390.42C894.759 391.4 893.359 392.24 891.139 392.24ZM890.899 383.56C889.619 383.56 888.799 384.42 888.799 385.74V385.9H892.959V385.74C892.959 384.4 892.179 383.56 890.899 383.56ZM904.612 392H901.092L897.392 381.68H900.512L901.852 386.1L902.832 389.54H902.992L903.972 386.1L905.312 381.68H908.312L904.612 392Z" fill="#F9FAFB" fill-opacity="0.75"/>
<path d="M539.92 392.34V394.26H537.82C533.38 394.26 531.76 391.52 531.76 385.9C531.76 379.84 533.64 377.8 537.02 377.8C540.48 377.8 542.06 379.96 542.06 382.74V390.18H539.92V388.96H539.78C539.48 389.94 538.82 390.42 537.9 390.42C536.34 390.42 535.42 389.08 535.42 386.12C535.42 383.16 536.34 381.82 537.9 381.82C538.82 381.82 539.48 382.3 539.78 383.28H539.92V382.74C539.92 380.48 538.8 379.7 537.14 379.7C535.18 379.7 534 380.82 534 384.84V387.42C534 390.52 535.06 392.34 537.82 392.34H539.92ZM538.78 388.7C539.52 388.7 539.92 388.24 539.92 387.52V384.72C539.92 384 539.52 383.54 538.78 383.54C538.06 383.54 537.66 383.98 537.66 385.46V386.78C537.66 388.26 538.06 388.7 538.78 388.7ZM548.992 392.24C545.772 392.24 543.812 390.18 543.812 386.84C543.812 383.5 545.772 381.44 548.992 381.44C552.212 381.44 554.172 383.5 554.172 386.84C554.172 390.18 552.212 392.24 548.992 392.24ZM548.992 390.04C550.312 390.04 551.112 389.18 551.112 387.66V386.02C551.112 384.5 550.312 383.64 548.992 383.64C547.672 383.64 546.872 384.5 546.872 386.02V387.66C546.872 389.18 547.672 390.04 548.992 390.04ZM559.244 392H556.284V381.68H559.244V383.56H559.364C559.824 382.4 560.744 381.44 562.404 381.44C564.384 381.44 565.764 382.82 565.764 385.32V392H562.804V385.72C562.804 384.42 562.224 383.72 561.064 383.72C560.144 383.72 559.244 384.22 559.244 385.22V392ZM573.257 392.24C569.797 392.24 567.977 390.18 567.977 386.88C567.977 383.5 569.897 381.44 572.997 381.44C576.077 381.44 577.977 383.46 577.977 386.68V387.56H570.917V387.74C570.917 389.06 571.777 389.96 573.357 389.96C574.577 389.96 575.437 389.44 576.077 388.68L577.677 390.42C576.877 391.4 575.477 392.24 573.257 392.24ZM573.017 383.56C571.737 383.56 570.917 384.42 570.917 385.74V385.9H575.077V385.74C575.077 384.4 574.297 383.56 573.017 383.56ZM581.949 392H579.569V381.68H581.949V383.2H582.089C582.409 382.24 582.949 381.44 584.049 381.44C585.029 381.44 585.669 382.06 585.889 383.2H586.009C586.349 382.26 586.929 381.44 588.209 381.44C589.649 381.44 590.369 382.5 590.369 384.62V392H587.989V384.92C587.989 383.96 587.629 383.62 587.089 383.62C586.589 383.62 586.169 383.94 586.169 384.64V392H583.769V384.92C583.769 383.96 583.429 383.62 582.909 383.62C582.369 383.62 581.949 383.94 581.949 384.64V392ZM597.601 380.36C596.281 380.36 595.821 379.74 595.821 378.96V378.38C595.821 377.58 596.281 376.98 597.601 376.98C598.921 376.98 599.381 377.58 599.381 378.38V378.96C599.381 379.74 598.921 380.36 597.601 380.36ZM592.841 392V389.7H596.121V383.98H592.841V381.68H599.081V389.7H602.121V392H592.841ZM607.213 392H604.253V381.68H607.213V383.56H607.333C607.793 382.4 608.713 381.44 610.373 381.44C612.353 381.44 613.733 382.82 613.733 385.32V392H610.773V385.72C610.773 384.42 610.193 383.72 609.033 383.72C608.113 383.72 607.213 384.22 607.213 385.22V392ZM621.365 392.24C618.105 392.24 616.145 390.18 616.145 386.84C616.145 383.5 618.125 381.44 621.345 381.44C623.605 381.44 624.925 382.46 625.645 383.96L623.365 385.2C623.005 384.4 622.445 383.8 621.345 383.8C620.005 383.8 619.225 384.64 619.225 386V387.68C619.225 389.04 619.985 389.88 621.385 389.88C622.525 389.88 623.125 389.28 623.565 388.44L625.805 389.72C625.065 391.22 623.665 392.24 621.365 392.24ZM628.238 392V377.2H631.198V383.56H631.318C631.778 382.4 632.698 381.44 634.358 381.44C636.338 381.44 637.718 382.82 637.718 385.32V392H634.758V385.72C634.758 384.42 634.178 383.72 633.018 383.72C632.098 383.72 631.198 384.22 631.198 385.22V392H628.238Z" fill="#F9FAFB" fill-opacity="0.75"/>
<circle cx="654" cy="384" r="4" fill="#22C55E"/>
<path d="M544.28 198H538.88V172.872H555.548V177.3H544.28V183.06H554.36V187.488H544.28V198ZM560.25 198V193.86H564.534V183.564H560.25V179.424H569.862V184.68H570.114C570.798 181.944 572.382 179.424 576.054 179.424H577.818V184.32H573.858C571.23 184.32 569.862 186.12 569.862 188.352V193.86H574.506V198H560.25ZM589.972 198.432C584.176 198.432 580.648 194.724 580.648 188.712C580.648 182.7 584.176 178.992 589.972 178.992C595.768 178.992 599.296 182.7 599.296 188.712C599.296 194.724 595.768 198.432 589.972 198.432ZM589.972 194.472C592.348 194.472 593.788 192.924 593.788 190.188V187.236C593.788 184.5 592.348 182.952 589.972 182.952C587.596 182.952 586.156 184.5 586.156 187.236V190.188C586.156 192.924 587.596 194.472 589.972 194.472ZM608.426 198H603.098V179.424H608.426V182.808H608.642C609.47 180.72 611.126 178.992 614.114 178.992C617.678 178.992 620.162 181.476 620.162 185.976V198H614.834V186.696C614.834 184.356 613.79 183.096 611.702 183.096C610.046 183.096 608.426 183.996 608.426 185.796V198ZM641.46 198H634.584C630.732 198 628.896 195.768 628.896 192.636V183.564H623.856V179.424H627.132C628.716 179.424 629.328 178.884 629.328 177.228V172.872H634.224V179.424H641.46V183.564H634.224V193.86H641.46V198ZM655.234 198.432C649.006 198.432 645.73 194.724 645.73 188.784C645.73 182.7 649.186 178.992 654.766 178.992C660.31 178.992 663.73 182.628 663.73 188.424V190.008H651.022V190.332C651.022 192.708 652.57 194.328 655.414 194.328C657.61 194.328 659.158 193.392 660.31 192.024L663.19 195.156C661.75 196.92 659.23 198.432 655.234 198.432ZM654.802 182.808C652.498 182.808 651.022 184.356 651.022 186.732V187.02H658.51V186.732C658.51 184.32 657.106 182.808 654.802 182.808ZM673.184 198H667.856V179.424H673.184V182.808H673.4C674.228 180.72 675.884 178.992 678.872 178.992C682.436 178.992 684.92 181.476 684.92 185.976V198H679.592V186.696C679.592 184.356 678.548 183.096 676.46 183.096C674.804 183.096 673.184 183.996 673.184 185.796V198ZM701.25 198V194.616H700.998C700.062 196.848 698.478 198.432 695.49 198.432C691.386 198.432 688.506 195.444 688.506 188.712C688.506 181.98 691.386 178.992 695.49 178.992C698.478 178.992 700.062 180.576 700.998 182.808H701.25V171.36H706.578V198H701.25ZM697.794 194.292C699.666 194.292 701.25 193.392 701.25 191.448V185.976C701.25 184.032 699.666 183.132 697.794 183.132C695.418 183.132 694.05 184.68 694.05 187.272V190.152C694.05 192.744 695.418 194.292 697.794 194.292ZM749.209 198H733.153V172.872H749.209V177.3H738.553V183.06H748.849V187.488H738.553V193.572H749.209V198ZM759.527 198H754.199V179.424H759.527V182.808H759.743C760.571 180.72 762.227 178.992 765.215 178.992C768.779 178.992 771.263 181.476 771.263 185.976V198H765.935V186.696C765.935 184.356 764.891 183.096 762.803 183.096C761.147 183.096 759.527 183.996 759.527 185.796V198ZM794.433 199.872C794.433 203.796 791.193 205.632 784.137 205.632C777.081 205.632 775.137 203.868 775.137 201.348C775.137 199.26 776.469 198.288 778.701 197.712V197.496C777.117 197.028 776.109 196.2 776.109 194.58C776.109 192.78 777.441 192.024 779.457 191.556V191.34C777.261 190.296 775.965 188.352 775.965 185.616C775.965 181.296 779.169 178.992 784.029 178.992C785.217 178.992 786.333 179.136 787.305 179.388V178.38C787.305 176.94 788.385 175.86 790.149 175.86H793.425V179.748H788.961V180.072C790.977 181.116 792.165 182.988 792.165 185.616C792.165 189.9 788.925 192.24 784.029 192.24C782.949 192.24 781.905 192.132 781.005 191.88C780.465 192.168 780.069 192.6 780.069 193.248C780.069 194.436 781.329 194.508 782.805 194.508H787.053C792.381 194.508 794.433 196.74 794.433 199.872ZM789.393 200.268C789.393 199.296 788.781 198.72 786.621 198.72H780.249C779.781 199.116 779.529 199.62 779.529 200.232C779.529 201.384 780.429 202.212 782.769 202.212H785.901C788.313 202.212 789.393 201.528 789.393 200.268ZM784.029 188.856C786.153 188.856 787.125 187.668 787.125 186.048V185.184C787.125 183.564 786.153 182.376 784.029 182.376C781.941 182.376 781.005 183.564 781.005 185.184V186.048C781.005 187.668 781.941 188.856 784.029 188.856ZM806.983 177.048C804.607 177.048 803.779 175.932 803.779 174.528V173.484C803.779 172.044 804.607 170.964 806.983 170.964C809.359 170.964 810.187 172.044 810.187 173.484V174.528C810.187 175.932 809.359 177.048 806.983 177.048ZM798.415 198V193.86H804.319V183.564H798.415V179.424H809.647V193.86H815.119V198H798.415ZM824.285 198H818.957V179.424H824.285V182.808H824.501C825.329 180.72 826.985 178.992 829.973 178.992C833.537 178.992 836.021 181.476 836.021 185.976V198H830.693V186.696C830.693 184.356 829.649 183.096 827.561 183.096C825.905 183.096 824.285 183.996 824.285 185.796V198ZM849.507 198.432C843.279 198.432 840.003 194.724 840.003 188.784C840.003 182.7 843.459 178.992 849.039 178.992C854.583 178.992 858.003 182.628 858.003 188.424V190.008H845.295V190.332C845.295 192.708 846.843 194.328 849.687 194.328C851.883 194.328 853.431 193.392 854.583 192.024L857.463 195.156C856.023 196.92 853.503 198.432 849.507 198.432ZM849.075 182.808C846.771 182.808 845.295 184.356 845.295 186.732V187.02H852.783V186.732C852.783 184.32 851.379 182.808 849.075 182.808ZM871.093 198.432C864.865 198.432 861.589 194.724 861.589 188.784C861.589 182.7 865.045 178.992 870.625 178.992C876.169 178.992 879.589 182.628 879.589 188.424V190.008H866.881V190.332C866.881 192.708 868.429 194.328 871.273 194.328C873.469 194.328 875.017 193.392 876.169 192.024L879.049 195.156C877.609 196.92 875.089 198.432 871.093 198.432ZM870.661 182.808C868.357 182.808 866.881 184.356 866.881 186.732V187.02H874.369V186.732C874.369 184.32 872.965 182.808 870.661 182.808ZM884.039 198V193.86H888.323V183.564H884.039V179.424H893.651V184.68H893.903C894.587 181.944 896.171 179.424 899.843 179.424H901.607V184.32H897.647C895.019 184.32 893.651 186.12 893.651 188.352V193.86H898.295V198H884.039Z" fill="white" fill-opacity="0.85"/>
<path d="M622.072 132V98.496H632.872C641.848 98.496 646.168 104.496 646.168 115.248C646.168 126 641.848 132 632.872 132H622.072ZM629.176 126.336H632.392C636.664 126.336 638.584 123.504 638.584 118.272V112.176C638.584 106.992 636.664 104.16 632.392 104.16H629.176V126.336ZM675.237 132H671.157C668.229 132 666.309 130.416 666.021 127.632H665.781C664.917 130.848 662.037 132.576 658.245 132.576C653.445 132.576 650.277 129.84 650.277 125.184C650.277 120 654.165 117.552 661.413 117.552H665.397V116.304C665.397 113.376 664.149 111.84 660.885 111.84C657.909 111.84 656.181 113.136 654.837 114.96L650.949 111.504C652.581 108.72 656.181 106.656 661.701 106.656C668.469 106.656 672.501 109.776 672.501 116.016V126.864H675.237V132ZM660.933 127.92C663.429 127.92 665.397 126.672 665.397 124.368V121.392H661.605C658.773 121.392 657.237 122.4 657.237 124.32V125.28C657.237 127.008 658.677 127.92 660.933 127.92ZM679.827 132L676.899 107.232H682.803L684.579 127.296H685.059L687.987 107.232H694.227L697.107 127.296H697.587L699.411 107.232H705.027L702.099 132H693.651L691.203 114.912H690.723L688.275 132H679.827ZM721.28 104.064C718.112 104.064 717.008 102.576 717.008 100.704V99.312C717.008 97.392 718.112 95.952 721.28 95.952C724.448 95.952 725.552 97.392 725.552 99.312V100.704C725.552 102.576 724.448 104.064 721.28 104.064ZM709.856 132V126.48H717.728V112.752H709.856V107.232H724.832V126.48H732.128V132H709.856ZM759.613 132H750.445C745.309 132 742.861 129.024 742.861 124.848V112.752H736.141V107.232H740.509C742.621 107.232 743.437 106.512 743.437 104.304V98.496H749.965V107.232H759.613V112.752H749.965V126.48H759.613V132ZM794.328 98.496H801.528V119.712C801.528 123.984 801.864 126.768 806.088 126.768C810.312 126.768 810.648 123.984 810.648 119.712V98.496H817.848V118.752C817.848 127.92 815.832 132.576 806.088 132.576C796.344 132.576 794.328 127.92 794.328 118.752V98.496Z" fill="white" fill-opacity="0.95"/>
<defs>
<linearGradient id="paint0_linear_1_2" x1="720" y1="0" x2="720" y2="480" gradientUnits="userSpaceOnUse">
<stop stop-color="#22C55E"/>
<stop offset="1" stop-color="#A3E635"/>
</linearGradient>
<clipPath id="clip0_1_2">
<rect width="45.8387" height="45.8387" fill="white" transform="translate(608.677 267)"/>
</clipPath>
<clipPath id="clip1_1_2">
<rect width="46.7742" height="45.8387" fill="white" transform="translate(696.613 267)"/>
</clipPath>
<clipPath id="clip2_1_2">
<rect width="45.8387" height="45.8387" fill="white" transform="translate(1051.16 267)"/>
</clipPath>
<clipPath id="clip3_1_2">
<rect width="46.7742" height="45.8387" fill="white" transform="translate(873.419 267)"/>
</clipPath>
<clipPath id="clip4_1_2">
<rect width="45.8387" height="45.8387" fill="white" transform="translate(785.484 267)"/>
</clipPath>
<clipPath id="clip5_1_2">
<rect width="45.8387" height="45.8387" fill="white" transform="translate(962.29 267)"/>
</clipPath>
<clipPath id="clip6_1_2">
<rect width="45.8387" height="45.8387" fill="white" transform="translate(343 267)"/>
</clipPath>
<clipPath id="clip7_1_2">
<rect width="45.8387" height="45.8387" fill="white" transform="translate(431.871 267)"/>
</clipPath>
<clipPath id="clip8_1_2">
<rect width="46.7742" height="45.8387" fill="white" transform="translate(519.806 267)"/>
</clipPath>
</defs>
</svg>
