<svg width="1440" height="480" viewBox="0 0 1440 480" fill="none" xmlns="http://www.w3.org/2000/svg">
<rect width="1440" height="480" fill="url(#paint0_linear_1_2)"/>
<rect x="1" y="1" width="1438" height="478" fill="#000A05"/>
<g clip-path="url(#clip0_1_2)">
<path d="M654.516 270.075H635.531L631.597 276.855L627.662 270.075H608.677L631.597 309.764L654.516 270.075ZM631.597 293.892L618.533 271.259H626.994L631.597 279.243L636.2 271.259H644.661L631.597 293.892Z" fill="#4FC08D"/>
</g>
<g clip-path="url(#clip1_1_2)">
<path d="M724.346 289.927C724.346 291.059 723.887 292.145 723.07 292.946C722.254 293.747 721.146 294.197 719.99 294.198C718.835 294.198 717.726 293.748 716.909 292.947C716.092 292.146 715.632 291.06 715.632 289.927C715.632 288.795 716.091 287.709 716.908 286.908C717.725 286.107 718.833 285.657 719.988 285.656C721.144 285.656 722.252 286.106 723.07 286.907C723.887 287.708 724.346 288.794 724.346 289.927ZM729.507 269.51C726.884 269.51 723.452 271.343 719.981 274.518C716.511 271.36 713.077 269.548 710.456 269.548C709.657 269.548 708.93 269.725 708.301 270.079C705.621 271.593 705.021 276.313 706.404 282.236C700.472 284.031 696.613 286.902 696.613 289.927C696.613 292.964 700.491 295.842 706.441 297.624C705.069 303.57 705.681 308.297 708.367 309.81C708.991 310.167 709.712 310.335 710.515 310.335C713.136 310.335 716.57 308.501 720.041 305.323C723.51 308.482 726.944 310.295 729.565 310.295C730.364 310.295 731.091 310.123 731.721 309.769C734.399 308.257 735.001 303.537 733.617 297.613C739.528 295.833 743.387 292.956 743.387 289.927C743.387 286.89 739.509 284.012 733.559 282.226C734.931 276.286 734.319 271.555 731.633 270.041C731.013 269.689 730.294 269.512 729.507 269.51ZM729.497 271.591V271.603C729.936 271.603 730.288 271.687 730.585 271.846C731.883 272.575 732.446 275.35 732.007 278.92C731.902 279.799 731.731 280.725 731.52 281.67C729.649 281.22 727.611 280.874 725.465 280.65C724.179 278.922 722.843 277.352 721.499 275.977C724.601 273.15 727.515 271.599 729.499 271.593L729.497 271.591ZM710.456 271.63C712.428 271.63 715.356 273.173 718.466 275.984C717.129 277.36 715.796 278.92 714.529 280.648C712.372 280.872 710.331 281.218 708.462 281.676C708.244 280.74 708.082 279.835 707.967 278.964C707.519 275.396 708.073 272.623 709.359 271.884C709.729 271.712 710.138 271.639 710.456 271.63ZM719.971 277.455C720.858 278.349 721.744 279.35 722.621 280.442C721.764 280.404 720.887 280.377 720 280.377C719.104 280.377 718.217 280.396 717.349 280.442C718.207 279.35 719.094 278.351 719.971 277.455ZM720 282.471C721.442 282.471 722.879 282.535 724.292 282.648C725.083 283.76 725.855 284.946 726.597 286.201C727.322 287.423 727.981 288.664 728.581 289.917C727.981 291.168 727.322 292.419 726.607 293.642C725.866 294.902 725.1 296.102 724.307 297.213C722.888 297.334 721.45 297.401 720 297.401C718.558 297.401 717.121 297.334 715.708 297.223C714.917 296.111 714.145 294.923 713.403 293.67C712.678 292.448 712.019 291.207 711.419 289.954C712.009 288.699 712.678 287.446 713.393 286.222C714.134 284.961 714.9 283.765 715.693 282.654C717.112 282.532 718.55 282.467 720 282.467V282.471ZM712.916 282.956C712.448 283.676 711.98 284.413 711.544 285.171C711.105 285.916 710.696 286.665 710.306 287.413C709.79 286.161 709.351 284.911 708.989 283.695C710.236 283.408 711.551 283.152 712.916 282.956ZM727.065 282.956C728.419 283.152 729.725 283.395 730.974 283.695C730.624 284.902 730.185 286.143 729.688 287.387C729.298 286.642 728.889 285.891 728.441 285.144C728.002 284.396 727.535 283.666 727.067 282.956H727.065ZM733.034 284.245C733.978 284.531 734.874 284.85 735.714 285.196C739.09 286.609 741.273 288.458 741.273 289.925C741.263 291.392 739.08 293.248 735.704 294.652C734.886 294.996 733.989 295.305 733.064 295.594C732.518 293.764 731.805 291.858 730.92 289.902C731.797 287.96 732.498 286.063 733.034 284.241V284.245ZM706.929 284.253C707.47 286.086 708.186 287.99 709.072 289.944C708.195 291.887 707.49 293.783 706.956 295.605C706.013 295.319 705.116 294.998 704.286 294.65C700.91 293.243 698.727 291.392 698.727 289.925C698.727 288.458 700.91 286.598 704.286 285.196C705.104 284.852 706.001 284.543 706.929 284.253ZM729.688 292.427C730.205 293.682 730.643 294.933 731.006 296.148C729.758 296.448 728.441 296.702 727.077 296.893C727.544 296.176 728.012 295.437 728.451 294.681C728.889 293.936 729.296 293.176 729.688 292.427ZM710.306 292.465C710.696 293.214 711.105 293.961 711.553 294.709C712.002 295.454 712.46 296.184 712.927 296.893C711.573 296.698 710.267 296.453 709.018 296.155C709.369 294.952 709.809 293.707 710.304 292.463L710.306 292.465ZM731.538 298.17C731.756 299.112 731.927 300.019 732.033 300.888C732.481 304.456 731.927 307.229 730.641 307.97C730.355 308.142 729.982 308.215 729.544 308.215C727.572 308.215 724.644 306.673 721.534 303.86C722.871 302.485 724.204 300.926 725.471 299.2C727.628 298.974 729.669 298.629 731.538 298.17ZM708.482 298.189C710.353 298.636 712.391 298.982 714.537 299.205C715.823 300.934 717.158 302.504 718.503 303.877C715.395 306.71 712.477 308.261 710.493 308.261C710.064 308.251 709.702 308.165 709.415 308.008C708.117 307.283 707.554 304.506 707.993 300.936C708.098 300.057 708.271 299.133 708.482 298.189ZM717.369 299.412C718.226 299.45 719.104 299.477 719.99 299.477C720.887 299.477 721.774 299.458 722.641 299.412C721.783 300.504 720.897 301.503 720.02 302.401C719.133 301.503 718.246 300.504 717.369 299.412Z" fill="#61DAFB"/>
</g>
<g clip-path="url(#clip2_1_2)">
<path d="M1078.38 267.344L1080.1 267.726L1081.49 268.222L1082.62 268.795L1083.48 269.407L1084.13 270.056L1084.6 270.705L1084.91 271.336L1085.1 271.909L1085.18 272.405L1085.22 272.787L1085.2 273.035V283.235L1085.1 284.438L1084.85 285.488L1084.45 286.367L1083.95 287.093L1083.38 287.685L1082.75 288.162L1082.08 288.525L1081.41 288.792L1080.78 288.983L1080.21 289.117L1079.71 289.194L1079.31 289.232H1067.91L1066.59 289.327L1065.47 289.595L1064.51 290.015L1063.73 290.531L1063.1 291.142L1062.58 291.81L1062.2 292.498L1061.91 293.204L1061.72 293.873L1061.59 294.484L1061.51 295L1061.47 295.401V301.245H1057.22L1056.81 301.188L1056.28 301.054L1055.67 300.825L1055 300.481L1054.31 299.985L1053.62 299.297L1052.96 298.419L1052.35 297.292L1051.81 295.897L1051.41 294.217L1051.14 292.211L1051.05 289.862L1051.16 287.532L1051.47 285.546L1051.93 283.884L1052.54 282.528L1053.22 281.439L1053.99 280.599L1054.79 279.969L1055.59 279.51L1056.36 279.205L1057.04 279.014L1057.65 278.918L1058.11 278.899H1058.42L1058.53 278.918H1074.12V277.333H1062.96L1062.95 272.08L1062.91 271.374L1063 270.724L1063.21 270.132L1063.54 269.598L1064.02 269.101L1064.61 268.662L1065.33 268.28L1066.17 267.936L1067.15 267.649L1068.26 267.42L1069.48 267.229L1070.83 267.115L1072.3 267.038L1073.91 267L1076.33 267.095L1078.38 267.344ZM1066.35 271.125L1065.91 271.756L1065.75 272.539L1065.91 273.322L1066.35 273.971L1066.98 274.391L1067.76 274.563L1068.54 274.391L1069.17 273.971L1069.61 273.322L1069.76 272.539L1069.61 271.756L1069.17 271.125L1068.54 270.705L1067.76 270.533L1066.98 270.705L1066.35 271.125ZM1091.35 278.67L1091.88 278.784L1092.49 279.014L1093.16 279.357L1093.85 279.873L1094.54 280.542L1095.2 281.439L1095.82 282.566L1096.35 283.96L1096.75 285.641L1097.02 287.627L1097.11 289.977L1097 292.326L1096.69 294.312L1096.24 295.955L1095.62 297.311L1094.94 298.4L1094.17 299.259L1093.37 299.889L1092.57 300.348L1091.8 300.653L1091.12 300.825L1090.51 300.921L1090.05 300.959L1089.74 300.94H1074.04V302.506H1085.2L1085.22 307.777L1085.25 308.465L1085.16 309.114L1084.95 309.706L1084.62 310.26L1084.15 310.738L1083.55 311.196L1082.83 311.578L1081.99 311.903L1081.01 312.189L1079.91 312.438L1078.68 312.61L1077.33 312.743L1075.86 312.82L1074.25 312.839L1071.83 312.762L1069.78 312.495L1068.06 312.113L1066.67 311.635L1065.54 311.062L1064.68 310.432L1064.03 309.783L1063.56 309.133L1063.25 308.503L1063.06 307.93L1062.98 307.453L1062.95 307.071L1062.96 306.822V296.623L1063.06 295.401L1063.31 294.37L1063.71 293.491L1064.21 292.765L1064.78 292.154L1065.41 291.696L1066.08 291.314L1066.75 291.046L1067.38 290.855L1067.95 290.741L1068.45 290.664L1068.85 290.626L1069.1 290.607H1080.25L1081.57 290.511L1082.69 290.244L1083.65 289.843L1084.43 289.308L1085.06 288.697L1085.58 288.029L1085.96 287.341L1086.25 286.653L1086.44 285.985L1086.57 285.374L1086.65 284.839L1086.69 284.438V278.593H1090.68L1090.95 278.612L1091.35 278.67ZM1078.99 305.887L1078.55 306.517L1078.4 307.3L1078.55 308.083L1078.99 308.713L1079.62 309.153L1080.4 309.305L1081.19 309.153L1081.82 308.713L1082.26 308.083L1082.41 307.3L1082.26 306.517L1081.82 305.887L1081.19 305.447L1080.4 305.294L1079.62 305.447L1078.99 305.887Z" fill="#3776AB"/>
</g>
<g clip-path="url(#clip3_1_2)">
<path d="M896.808 276.168C890.572 276.168 886.674 279.224 885.115 285.335C887.454 282.28 890.182 281.134 893.3 281.898C895.08 282.333 896.35 283.597 897.759 284.999C900.053 287.28 902.706 289.919 908.502 289.919C914.738 289.919 918.636 286.863 920.195 280.752C917.857 283.808 915.128 284.953 912.01 284.189C910.231 283.754 908.96 282.49 907.551 281.088C905.259 278.807 902.606 276.168 896.808 276.168ZM885.115 289.919C878.878 289.919 874.98 292.975 873.421 299.087C875.76 296.031 878.488 294.885 881.607 295.649C883.386 296.085 884.657 297.349 886.066 298.751C888.36 301.031 891.012 303.671 896.808 303.671C903.045 303.671 906.943 300.615 908.502 294.503C906.163 297.559 903.435 298.705 900.316 297.941C898.537 297.506 897.266 296.241 895.857 294.839C893.565 292.559 890.913 289.919 885.115 289.919Z" fill="#06B6D4"/>
</g>
<g clip-path="url(#clip4_1_2)">
<path d="M811.2 304.873H828.24C828.781 304.873 829.313 304.735 829.782 304.473C830.247 304.213 830.637 303.835 830.91 303.378C831.18 302.926 831.322 302.409 831.323 301.882C831.322 301.356 831.179 300.839 830.909 300.387L819.465 281.161C819.191 280.703 818.802 280.326 818.337 280.066C817.866 279.803 817.335 279.665 816.795 279.665C816.254 279.665 815.723 279.804 815.254 280.066C814.788 280.326 814.399 280.703 814.126 281.161L811.2 286.08L805.479 276.461C805.205 276.003 804.816 275.626 804.35 275.366C803.879 275.103 803.348 274.965 802.808 274.966C802.267 274.966 801.736 275.104 801.267 275.366C800.801 275.626 800.412 276.003 800.138 276.461L785.898 300.387C785.628 300.839 785.485 301.356 785.484 301.882C785.484 302.407 785.626 302.923 785.896 303.378C786.17 303.835 786.559 304.213 787.025 304.473C787.494 304.735 788.025 304.873 788.567 304.873H799.263C803.501 304.873 806.626 303.068 808.777 299.545L813.998 290.774L816.795 286.08L825.188 300.18H813.998L811.2 304.873ZM799.088 300.175L791.624 300.173L802.813 281.375L808.397 290.774L804.658 297.056C803.23 299.342 801.608 300.175 799.088 300.175Z" fill="#00DC82"/>
</g>
<g clip-path="url(#clip5_1_2)">
<path d="M985.206 312.839C984.593 312.839 983.982 312.678 983.445 312.367L977.837 309.049C977.001 308.581 977.409 308.415 977.684 308.318C978.802 307.93 979.027 307.84 980.221 307.164C980.345 307.094 980.509 307.12 980.637 307.197L984.946 309.754C985.103 309.84 985.322 309.84 985.466 309.754L1002.26 300.059C1002.42 299.969 1002.52 299.79 1002.52 299.605V280.219C1002.52 280.03 1002.42 279.852 1002.26 279.757L985.468 270.069C985.313 269.98 985.107 269.98 984.95 270.069L968.163 279.758C968.001 279.852 967.898 280.035 967.898 280.219V299.605C967.898 299.79 968.001 299.966 968.163 300.054L972.764 302.712C975.261 303.961 976.791 302.491 976.791 301.012V281.873C976.791 281.602 977.008 281.39 977.28 281.39H979.409C979.675 281.39 979.896 281.603 979.896 281.873V301.012C979.896 304.345 978.082 306.255 974.923 306.255C973.952 306.255 973.187 306.255 971.053 305.203L966.645 302.668C965.556 302.04 964.884 300.863 964.884 299.605V280.219C964.884 278.96 965.558 277.784 966.645 277.157L983.443 267.451C984.507 266.849 985.918 266.849 986.973 267.451L1003.77 277.157C1004.86 277.785 1005.53 278.96 1005.53 280.219V299.605C1005.53 300.863 1004.86 302.036 1003.77 302.668L986.973 312.367C986.438 312.678 985.829 312.839 985.206 312.839ZM998.768 293.726C998.768 290.097 996.316 289.131 991.153 288.449C985.937 287.759 985.406 287.402 985.406 286.182C985.406 285.173 985.855 283.827 989.719 283.827C993.17 283.827 994.442 284.57 994.966 286.896C995.012 287.116 995.212 287.276 995.437 287.276H997.617C997.752 287.276 997.88 287.217 997.972 287.121C998.064 287.018 998.113 286.886 998.1 286.747C997.762 282.74 995.099 280.872 989.719 280.872C984.929 280.872 982.072 282.893 982.072 286.283C982.072 289.959 984.914 290.976 989.511 291.43C995.012 291.969 995.437 292.773 995.437 293.854C995.437 295.731 993.93 296.532 990.391 296.532C985.947 296.532 984.969 295.416 984.641 293.204C984.602 292.968 984.4 292.794 984.157 292.794H981.986C981.716 292.794 981.501 293.008 981.501 293.277C981.501 296.108 983.04 299.481 990.391 299.481C995.716 299.482 998.768 297.387 998.768 293.726Z" fill="#339933"/>
</g>
<g clip-path="url(#clip6_1_2)">
<path d="M343 267H388.839V312.839H343V267ZM385.084 301.906C384.75 299.815 383.388 298.058 379.348 296.419C377.942 295.76 376.38 295.302 375.916 294.242C375.742 293.611 375.715 293.267 375.828 292.895C376.115 291.661 377.576 291.291 378.722 291.634C379.467 291.864 380.154 292.437 380.586 293.353C382.561 292.062 382.561 292.062 383.938 291.205C383.422 290.403 383.166 290.057 382.819 289.715C381.615 288.368 380.013 287.681 377.406 287.74L376.059 287.91C374.768 288.225 373.538 288.913 372.793 289.83C370.616 292.295 371.244 296.593 373.88 298.369C376.487 300.317 380.299 300.745 380.786 302.58C381.245 304.815 379.125 305.531 377.031 305.273C375.482 304.93 374.625 304.154 373.679 302.722L370.184 304.729C370.585 305.646 371.044 306.045 371.731 306.847C375.055 310.201 383.363 310.029 384.855 304.93C384.91 304.758 385.313 303.583 384.996 301.778L385.084 301.906ZM367.927 288.069H363.633C363.633 291.77 363.616 295.449 363.616 299.156C363.616 301.509 363.736 303.669 363.352 304.334C362.722 305.65 361.099 305.482 360.361 305.25C359.605 304.876 359.221 304.36 358.776 303.617C358.656 303.417 358.566 303.243 358.534 303.243L355.048 305.392C355.63 306.595 356.48 307.63 357.577 308.289C359.21 309.263 361.404 309.578 363.702 309.063C365.197 308.631 366.487 307.743 367.161 306.368C368.135 304.592 367.929 302.414 367.919 299.977C367.942 296.054 367.919 292.129 367.919 288.176L367.927 288.069Z" fill="#F7DF1E"/>
</g>
<g clip-path="url(#clip7_1_2)">
<path d="M434.736 267H474.845L471.197 308.184L454.746 312.839L438.39 308.182L434.736 267ZM448.165 285.622L447.722 280.431L466.934 280.436L467.373 275.429L442.208 275.423L443.541 290.722H460.971L460.348 297.265L454.79 298.801L449.146 297.254L448.787 293.224H443.804L444.435 301.19L454.79 303.959L465.064 301.203L466.485 285.624H448.165V285.622Z" fill="#E34F26"/>
</g>
<g clip-path="url(#clip8_1_2)">
<path d="M522.73 267H563.657L559.935 308.184L543.149 312.839L526.456 308.182L522.73 267ZM556.037 275.429L530.35 275.423L530.765 280.431L550.498 280.435L550.001 285.622H537.06L537.528 290.536H549.576L548.863 297.265L543.192 298.801L537.431 297.254L537.064 293.224H531.978L532.543 300.586L543.194 303.839L553.665 300.917L556.037 275.429Z" fill="#1572B6"/>
</g>
<path d="M688.3 378.2H691.26V384.56H691.38C691.5 384.267 691.647 383.993 691.82 383.74C691.993 383.487 692.2 383.267 692.44 383.08C692.693 382.88 692.98 382.727 693.3 382.62C693.633 382.5 694.007 382.44 694.42 382.44C694.913 382.44 695.367 382.527 695.78 382.7C696.193 382.86 696.547 383.107 696.84 383.44C697.133 383.773 697.36 384.18 697.52 384.66C697.693 385.14 697.78 385.693 697.78 386.32V393H694.82V386.72C694.82 385.387 694.24 384.72 693.08 384.72C692.853 384.72 692.627 384.753 692.4 384.82C692.187 384.873 691.993 384.967 691.82 385.1C691.647 385.22 691.507 385.373 691.4 385.56C691.307 385.747 691.26 385.967 691.26 386.22V393H688.3V378.2ZM705.792 393C704.726 393 703.932 392.72 703.412 392.16C702.892 391.6 702.632 390.887 702.632 390.02V384.98H699.832V382.68H701.652C702.092 382.68 702.406 382.593 702.592 382.42C702.779 382.247 702.872 381.927 702.872 381.46V379.04H705.592V382.68H709.612V384.98H705.592V390.7H709.612V393H705.792ZM717.784 393C716.718 393 715.924 392.72 715.404 392.16C714.884 391.6 714.624 390.887 714.624 390.02V384.98H711.824V382.68H713.644C714.084 382.68 714.398 382.593 714.584 382.42C714.771 382.247 714.864 381.927 714.864 381.46V379.04H717.584V382.68H721.604V384.98H717.584V390.7H721.604V393H717.784ZM724.157 382.68H727.117V384.56H727.257C727.51 383.947 727.877 383.44 728.357 383.04C728.837 382.64 729.49 382.44 730.317 382.44C730.89 382.44 731.41 382.547 731.877 382.76C732.357 382.973 732.763 383.3 733.097 383.74C733.443 384.18 733.71 384.74 733.897 385.42C734.097 386.1 734.197 386.907 734.197 387.84C734.197 388.773 734.097 389.58 733.897 390.26C733.71 390.94 733.443 391.5 733.097 391.94C732.763 392.38 732.357 392.707 731.877 392.92C731.41 393.133 730.89 393.24 730.317 393.24C729.49 393.24 728.837 393.047 728.357 392.66C727.877 392.26 727.51 391.747 727.257 391.12H727.117V397H724.157V382.68ZM729.037 390.94C729.703 390.94 730.217 390.74 730.577 390.34C730.937 389.927 731.117 389.36 731.117 388.64V387.04C731.117 386.32 730.937 385.76 730.577 385.36C730.217 384.947 729.703 384.74 729.037 384.74C728.517 384.74 728.063 384.867 727.677 385.12C727.303 385.373 727.117 385.773 727.117 386.32V389.36C727.117 389.907 727.303 390.307 727.677 390.56C728.063 390.813 728.517 390.94 729.037 390.94ZM740.849 393.24C739.702 393.24 738.702 393.067 737.849 392.72C737.009 392.373 736.375 391.9 735.949 391.3L737.609 389.76C738.009 390.2 738.475 390.547 739.009 390.8C739.555 391.04 740.175 391.16 740.869 391.16C741.455 391.16 741.915 391.073 742.249 390.9C742.582 390.713 742.749 390.433 742.749 390.06C742.749 389.767 742.635 389.567 742.409 389.46C742.182 389.34 741.869 389.247 741.469 389.18L739.809 388.92C739.342 388.853 738.909 388.753 738.509 388.62C738.109 388.473 737.762 388.28 737.469 388.04C737.175 387.8 736.942 387.507 736.769 387.16C736.595 386.813 736.509 386.393 736.509 385.9C736.509 384.82 736.922 383.973 737.749 383.36C738.575 382.747 739.735 382.44 741.229 382.44C742.242 382.44 743.102 382.58 743.809 382.86C744.529 383.127 745.102 383.513 745.529 384.02L744.049 385.7C743.742 385.367 743.349 385.087 742.869 384.86C742.389 384.633 741.809 384.52 741.129 384.52C739.982 384.52 739.409 384.867 739.409 385.56C739.409 385.867 739.522 386.08 739.749 386.2C739.975 386.307 740.289 386.393 740.689 386.46L742.329 386.72C742.795 386.787 743.229 386.893 743.629 387.04C744.029 387.173 744.375 387.36 744.669 387.6C744.975 387.84 745.215 388.133 745.389 388.48C745.562 388.827 745.649 389.247 745.649 389.74C745.649 390.82 745.229 391.673 744.389 392.3C743.562 392.927 742.382 393.24 740.849 393.24ZM752.961 393.24C752.214 393.24 751.674 393.08 751.341 392.76C751.021 392.427 750.861 392.033 750.861 391.58V390.88C750.861 390.427 751.021 390.04 751.341 389.72C751.674 389.387 752.214 389.22 752.961 389.22C753.708 389.22 754.241 389.387 754.561 389.72C754.894 390.04 755.061 390.427 755.061 390.88V391.58C755.061 392.033 754.894 392.427 754.561 392.76C754.241 393.08 753.708 393.24 752.961 393.24ZM752.961 386.46C752.214 386.46 751.674 386.3 751.341 385.98C751.021 385.647 750.861 385.253 750.861 384.8V384.1C750.861 383.647 751.021 383.26 751.341 382.94C751.674 382.607 752.214 382.44 752.961 382.44C753.708 382.44 754.241 382.607 754.561 382.94C754.894 383.26 755.061 383.647 755.061 384.1V384.8C755.061 385.253 754.894 385.647 754.561 385.98C754.241 386.3 753.708 386.46 752.961 386.46ZM760.413 395.76L766.833 377.8H769.493L763.073 395.76H760.413ZM772.405 395.76L778.825 377.8H781.485L775.065 395.76H772.405ZM783.538 393V382.68H785.918V384.2H786.058C786.218 383.72 786.444 383.307 786.738 382.96C787.044 382.613 787.471 382.44 788.018 382.44C789.018 382.44 789.631 383.027 789.858 384.2H789.978C790.058 383.96 790.158 383.733 790.278 383.52C790.398 383.307 790.544 383.12 790.718 382.96C790.891 382.8 791.098 382.673 791.338 382.58C791.578 382.487 791.858 382.44 792.178 382.44C793.618 382.44 794.338 383.5 794.338 385.62V393H791.958V385.92C791.958 385.44 791.871 385.107 791.698 384.92C791.538 384.72 791.324 384.62 791.058 384.62C790.804 384.62 790.584 384.707 790.398 384.88C790.224 385.04 790.138 385.293 790.138 385.64V393H787.738V385.92C787.738 385.44 787.658 385.107 787.498 384.92C787.351 384.72 787.144 384.62 786.878 384.62C786.611 384.62 786.384 384.707 786.198 384.88C786.011 385.04 785.918 385.293 785.918 385.64V393H783.538ZM801.57 381.36C800.903 381.36 800.436 381.227 800.17 380.96C799.916 380.68 799.79 380.347 799.79 379.96V379.38C799.79 378.98 799.916 378.647 800.17 378.38C800.436 378.113 800.903 377.98 801.57 377.98C802.236 377.98 802.696 378.113 802.95 378.38C803.216 378.647 803.35 378.98 803.35 379.38V379.96C803.35 380.347 803.216 380.68 802.95 380.96C802.696 381.227 802.236 381.36 801.57 381.36ZM796.81 390.7H800.09V384.98H796.81V382.68H803.05V390.7H806.09V393H796.81V390.7ZM808.222 393V382.68H811.182V384.56H811.302C811.422 384.267 811.569 383.993 811.742 383.74C811.915 383.487 812.122 383.267 812.362 383.08C812.615 382.88 812.902 382.727 813.222 382.62C813.555 382.5 813.929 382.44 814.342 382.44C814.835 382.44 815.289 382.527 815.702 382.7C816.115 382.86 816.469 383.107 816.762 383.44C817.055 383.773 817.282 384.18 817.442 384.66C817.615 385.14 817.702 385.693 817.702 386.32V393H814.742V386.72C814.742 385.387 814.162 384.72 813.002 384.72C812.775 384.72 812.549 384.753 812.322 384.82C812.109 384.873 811.915 384.967 811.742 385.1C811.569 385.22 811.429 385.373 811.322 385.56C811.229 385.747 811.182 385.967 811.182 386.22V393H808.222ZM825.334 393.24C824.521 393.24 823.787 393.12 823.134 392.88C822.494 392.627 821.947 392.267 821.494 391.8C821.054 391.333 820.714 390.767 820.474 390.1C820.234 389.433 820.114 388.68 820.114 387.84C820.114 387 820.234 386.247 820.474 385.58C820.714 384.913 821.054 384.347 821.494 383.88C821.947 383.413 822.494 383.06 823.134 382.82C823.787 382.567 824.514 382.44 825.314 382.44C826.447 382.44 827.354 382.673 828.034 383.14C828.727 383.593 829.254 384.2 829.614 384.96L827.334 386.2C827.147 385.8 826.901 385.467 826.594 385.2C826.301 384.933 825.874 384.8 825.314 384.8C824.634 384.8 824.107 385 823.734 385.4C823.374 385.787 823.194 386.32 823.194 387V388.68C823.194 389.36 823.374 389.9 823.734 390.3C824.107 390.687 824.647 390.88 825.354 390.88C825.927 390.88 826.374 390.747 826.694 390.48C827.027 390.213 827.307 389.867 827.534 389.44L829.774 390.72C829.401 391.48 828.854 392.093 828.134 392.56C827.427 393.013 826.494 393.24 825.334 393.24ZM832.206 378.2H835.166V384.56H835.286C835.406 384.267 835.553 383.993 835.726 383.74C835.9 383.487 836.106 383.267 836.346 383.08C836.6 382.88 836.886 382.727 837.206 382.62C837.54 382.5 837.913 382.44 838.326 382.44C838.82 382.44 839.273 382.527 839.686 382.7C840.1 382.86 840.453 383.107 840.746 383.44C841.04 383.773 841.266 384.18 841.426 384.66C841.6 385.14 841.686 385.693 841.686 386.32V393H838.726V386.72C838.726 385.387 838.146 384.72 836.986 384.72C836.76 384.72 836.533 384.753 836.306 384.82C836.093 384.873 835.9 384.967 835.726 385.1C835.553 385.22 835.413 385.373 835.306 385.56C835.213 385.747 835.166 385.967 835.166 386.22V393H832.206V378.2ZM848.898 393.24C848.152 393.24 847.612 393.08 847.278 392.76C846.958 392.427 846.798 392.033 846.798 391.58V390.88C846.798 390.427 846.958 390.04 847.278 389.72C847.612 389.387 848.152 389.22 848.898 389.22C849.645 389.22 850.178 389.387 850.498 389.72C850.832 390.04 850.998 390.427 850.998 390.88V391.58C850.998 392.033 850.832 392.427 850.498 392.76C850.178 393.08 849.645 393.24 848.898 393.24ZM862.751 391.12H862.611C862.344 391.747 861.971 392.26 861.491 392.66C861.024 393.047 860.377 393.24 859.551 393.24C858.977 393.24 858.451 393.133 857.971 392.92C857.504 392.707 857.097 392.38 856.751 391.94C856.417 391.5 856.151 390.94 855.951 390.26C855.764 389.58 855.671 388.773 855.671 387.84C855.671 386.907 855.764 386.1 855.951 385.42C856.151 384.74 856.417 384.18 856.751 383.74C857.097 383.3 857.504 382.973 857.971 382.76C858.451 382.547 858.977 382.44 859.551 382.44C859.964 382.44 860.331 382.493 860.651 382.6C860.971 382.707 861.251 382.853 861.491 383.04C861.744 383.227 861.957 383.453 862.131 383.72C862.317 383.973 862.477 384.253 862.611 384.56H862.751V378.2H865.711V393H862.751V391.12ZM860.831 390.94C861.351 390.94 861.797 390.813 862.171 390.56C862.557 390.307 862.751 389.907 862.751 389.36V386.32C862.751 385.773 862.557 385.373 862.171 385.12C861.797 384.867 861.351 384.74 860.831 384.74C860.164 384.74 859.651 384.947 859.291 385.36C858.931 385.76 858.751 386.32 858.751 387.04V388.64C858.751 389.36 858.931 389.927 859.291 390.34C859.651 390.74 860.164 390.94 860.831 390.94ZM873.163 393.24C871.429 393.24 870.116 392.76 869.223 391.8C868.329 390.84 867.883 389.533 867.883 387.88C867.883 387.04 867.996 386.287 868.223 385.62C868.463 384.94 868.796 384.367 869.223 383.9C869.663 383.42 870.189 383.06 870.803 382.82C871.429 382.567 872.129 382.44 872.903 382.44C873.676 382.44 874.369 382.567 874.983 382.82C875.596 383.06 876.116 383.407 876.543 383.86C876.969 384.313 877.296 384.867 877.523 385.52C877.763 386.16 877.883 386.88 877.883 387.68V388.56H870.823V388.74C870.823 389.407 871.029 389.947 871.443 390.36C871.856 390.76 872.463 390.96 873.263 390.96C873.876 390.96 874.403 390.847 874.843 390.62C875.283 390.38 875.663 390.067 875.983 389.68L877.583 391.42C877.183 391.913 876.623 392.34 875.903 392.7C875.183 393.06 874.269 393.24 873.163 393.24ZM872.923 384.56C872.283 384.56 871.769 384.76 871.383 385.16C871.009 385.547 870.823 386.073 870.823 386.74V386.9H874.983V386.74C874.983 386.06 874.796 385.527 874.423 385.14C874.063 384.753 873.563 384.56 872.923 384.56ZM883.115 393L879.415 382.68H882.535L883.875 387.1L884.855 390.54H885.015L885.995 387.1L887.335 382.68H890.335L886.635 393H883.115Z" fill="#F9FAFB" fill-opacity="0.75"/>
<path d="M557.92 393.34V395.26H555.82C551.38 395.26 549.76 392.52 549.76 386.9C549.76 380.84 551.64 378.8 555.02 378.8C558.48 378.8 560.06 380.96 560.06 383.74V391.18H557.92V389.96H557.78C557.48 390.94 556.82 391.42 555.9 391.42C554.34 391.42 553.42 390.08 553.42 387.12C553.42 384.16 554.34 382.82 555.9 382.82C556.82 382.82 557.48 383.3 557.78 384.28H557.92V383.74C557.92 381.48 556.8 380.7 555.14 380.7C553.18 380.7 552 381.82 552 385.84V388.42C552 391.52 553.06 393.34 555.82 393.34H557.92ZM556.78 389.7C557.52 389.7 557.92 389.24 557.92 388.52V385.72C557.92 385 557.52 384.54 556.78 384.54C556.06 384.54 555.66 384.98 555.66 386.46V387.78C555.66 389.26 556.06 389.7 556.78 389.7ZM566.992 393.24C563.772 393.24 561.812 391.18 561.812 387.84C561.812 384.5 563.772 382.44 566.992 382.44C570.212 382.44 572.172 384.5 572.172 387.84C572.172 391.18 570.212 393.24 566.992 393.24ZM566.992 391.04C568.312 391.04 569.112 390.18 569.112 388.66V387.02C569.112 385.5 568.312 384.64 566.992 384.64C565.672 384.64 564.872 385.5 564.872 387.02V388.66C564.872 390.18 565.672 391.04 566.992 391.04ZM577.244 393H574.284V382.68H577.244V384.56H577.364C577.824 383.4 578.744 382.44 580.404 382.44C582.384 382.44 583.764 383.82 583.764 386.32V393H580.804V386.72C580.804 385.42 580.224 384.72 579.064 384.72C578.144 384.72 577.244 385.22 577.244 386.22V393ZM591.257 393.24C587.797 393.24 585.977 391.18 585.977 387.88C585.977 384.5 587.897 382.44 590.997 382.44C594.077 382.44 595.977 384.46 595.977 387.68V388.56H588.917V388.74C588.917 390.06 589.777 390.96 591.357 390.96C592.577 390.96 593.437 390.44 594.077 389.68L595.677 391.42C594.877 392.4 593.477 393.24 591.257 393.24ZM591.017 384.56C589.737 384.56 588.917 385.42 588.917 386.74V386.9H593.077V386.74C593.077 385.4 592.297 384.56 591.017 384.56ZM599.949 393H597.569V382.68H599.949V384.2H600.089C600.409 383.24 600.949 382.44 602.049 382.44C603.029 382.44 603.669 383.06 603.889 384.2H604.009C604.349 383.26 604.929 382.44 606.209 382.44C607.649 382.44 608.369 383.5 608.369 385.62V393H605.989V385.92C605.989 384.96 605.629 384.62 605.089 384.62C604.589 384.62 604.169 384.94 604.169 385.64V393H601.769V385.92C601.769 384.96 601.429 384.62 600.909 384.62C600.369 384.62 599.949 384.94 599.949 385.64V393ZM615.601 381.36C614.281 381.36 613.821 380.74 613.821 379.96V379.38C613.821 378.58 614.281 377.98 615.601 377.98C616.921 377.98 617.381 378.58 617.381 379.38V379.96C617.381 380.74 616.921 381.36 615.601 381.36ZM610.841 393V390.7H614.121V384.98H610.841V382.68H617.081V390.7H620.121V393H610.841ZM625.213 393H622.253V382.68H625.213V384.56H625.333C625.793 383.4 626.713 382.44 628.373 382.44C630.353 382.44 631.733 383.82 631.733 386.32V393H628.773V386.72C628.773 385.42 628.193 384.72 627.033 384.72C626.113 384.72 625.213 385.22 625.213 386.22V393ZM639.365 393.24C636.105 393.24 634.145 391.18 634.145 387.84C634.145 384.5 636.125 382.44 639.345 382.44C641.605 382.44 642.925 383.46 643.645 384.96L641.365 386.2C641.005 385.4 640.445 384.8 639.345 384.8C638.005 384.8 637.225 385.64 637.225 387V388.68C637.225 390.04 637.985 390.88 639.385 390.88C640.525 390.88 641.125 390.28 641.565 389.44L643.805 390.72C643.065 392.22 641.665 393.24 639.365 393.24ZM646.238 393V378.2H649.198V384.56H649.318C649.778 383.4 650.698 382.44 652.358 382.44C654.338 382.44 655.718 383.82 655.718 386.32V393H652.758V386.72C652.758 385.42 652.178 384.72 651.018 384.72C650.098 384.72 649.198 385.22 649.198 386.22V393H646.238Z" fill="#F9FAFB" fill-opacity="0.75"/>
<circle cx="672" cy="385" r="4" fill="#22C55E"/>
<path d="M506.88 198V172.872H523.548V177.3H512.28V183.06H522.36V187.488H512.28V198H506.88ZM539.518 194.616H539.302C538.894 195.672 538.246 196.572 537.358 197.316C536.494 198.06 535.318 198.432 533.83 198.432C532.942 198.432 532.126 198.288 531.382 198C530.638 197.688 530.002 197.232 529.474 196.632C528.946 196.032 528.526 195.3 528.214 194.436C527.926 193.572 527.782 192.576 527.782 191.448V179.424H533.11V190.728C533.11 193.128 534.154 194.328 536.242 194.328C536.65 194.328 537.046 194.28 537.43 194.184C537.838 194.064 538.186 193.896 538.474 193.68C538.786 193.44 539.038 193.152 539.23 192.816C539.422 192.48 539.518 192.084 539.518 191.628V179.424H544.846V198H539.518V194.616ZM549.62 193.86H555.308V175.5H549.62V171.36H560.636V193.86H566.324V198H549.62V193.86ZM571.206 193.86H576.894V175.5H571.206V171.36H582.222V193.86H587.91V198H571.206V193.86ZM595.384 189.576V184.464H606.904V189.576H595.384ZM622.334 198.432C620.222 198.432 618.386 198.084 616.826 197.388C615.266 196.692 614.006 195.744 613.046 194.544L616.178 191.088C617.09 192.096 618.086 192.84 619.166 193.32C620.27 193.8 621.386 194.04 622.514 194.04C623.81 194.04 624.794 193.752 625.466 193.176C626.138 192.6 626.474 191.772 626.474 190.692C626.474 189.804 626.21 189.132 625.682 188.676C625.178 188.22 624.314 187.896 623.09 187.704L620.462 187.272C618.206 186.888 616.574 186.06 615.566 184.788C614.558 183.492 614.054 181.92 614.054 180.072C614.054 177.648 614.846 175.776 616.43 174.456C618.014 173.112 620.234 172.44 623.09 172.44C625.034 172.44 626.726 172.74 628.166 173.34C629.606 173.94 630.77 174.756 631.658 175.788L628.598 179.208C627.926 178.464 627.134 177.888 626.222 177.48C625.31 177.048 624.278 176.832 623.126 176.832C620.702 176.832 619.49 177.828 619.49 179.82C619.49 180.684 619.754 181.332 620.282 181.764C620.834 182.196 621.722 182.52 622.946 182.736L625.574 183.204C627.614 183.564 629.186 184.332 630.29 185.508C631.394 186.684 631.946 188.268 631.946 190.26C631.946 191.436 631.742 192.528 631.334 193.536C630.926 194.52 630.314 195.384 629.498 196.128C628.682 196.848 627.674 197.412 626.474 197.82C625.298 198.228 623.918 198.432 622.334 198.432ZM645.756 198C643.836 198 642.408 197.496 641.472 196.488C640.536 195.48 640.068 194.196 640.068 192.636V183.564H635.028V179.424H638.304C639.096 179.424 639.66 179.268 639.996 178.956C640.332 178.644 640.5 178.068 640.5 177.228V172.872H645.396V179.424H652.632V183.564H645.396V193.86H652.632V198H645.756ZM672.634 198C671.53 198 670.642 197.724 669.97 197.172C669.298 196.596 668.902 195.78 668.782 194.724H668.602C668.266 195.948 667.594 196.872 666.586 197.496C665.602 198.12 664.39 198.432 662.95 198.432C661.15 198.432 659.698 197.952 658.594 196.992C657.514 196.008 656.974 194.64 656.974 192.888C656.974 190.944 657.682 189.504 659.098 188.568C660.514 187.632 662.59 187.164 665.326 187.164H668.314V186.228C668.314 185.124 668.05 184.296 667.522 183.744C667.018 183.168 666.154 182.88 664.93 182.88C663.802 182.88 662.89 183.096 662.194 183.528C661.498 183.96 660.898 184.524 660.394 185.22L657.478 182.628C658.102 181.572 659.074 180.708 660.394 180.036C661.738 179.34 663.454 178.992 665.542 178.992C668.086 178.992 670.066 179.58 671.482 180.756C672.922 181.908 673.642 183.66 673.642 186.012V194.148H675.694V198H672.634ZM664.966 194.94C665.902 194.94 666.694 194.712 667.342 194.256C667.99 193.8 668.314 193.14 668.314 192.276V190.044H665.47C663.286 190.044 662.194 190.776 662.194 192.24V192.96C662.194 193.608 662.446 194.1 662.95 194.436C663.454 194.772 664.126 194.94 664.966 194.94ZM688.244 198.432C686.78 198.432 685.46 198.216 684.284 197.784C683.132 197.328 682.148 196.68 681.332 195.84C680.54 195 679.928 193.98 679.496 192.78C679.064 191.58 678.848 190.224 678.848 188.712C678.848 187.2 679.064 185.844 679.496 184.644C679.928 183.444 680.54 182.424 681.332 181.584C682.148 180.744 683.132 180.108 684.284 179.676C685.46 179.22 686.768 178.992 688.208 178.992C690.248 178.992 691.88 179.412 693.104 180.252C694.352 181.068 695.3 182.16 695.948 183.528L691.844 185.76C691.508 185.04 691.064 184.44 690.512 183.96C689.984 183.48 689.216 183.24 688.208 183.24C686.984 183.24 686.036 183.6 685.364 184.32C684.716 185.016 684.392 185.976 684.392 187.2V190.224C684.392 191.448 684.716 192.42 685.364 193.14C686.036 193.836 687.008 194.184 688.28 194.184C689.312 194.184 690.116 193.944 690.692 193.464C691.292 192.984 691.796 192.36 692.204 191.592L696.236 193.896C695.564 195.264 694.58 196.368 693.284 197.208C692.012 198.024 690.332 198.432 688.244 198.432ZM700.613 171.36H705.941V186.48H706.193L708.677 183.564L712.565 179.424H718.685L711.485 186.768L719.441 198H713.105L707.705 189.792L705.941 191.556V198H700.613V171.36ZM743.749 172.872H751.849C755.233 172.872 757.741 173.952 759.373 176.112C761.005 178.272 761.821 181.38 761.821 185.436C761.821 189.492 761.005 192.6 759.373 194.76C757.741 196.92 755.233 198 751.849 198H743.749V172.872ZM751.489 193.752C753.097 193.752 754.273 193.236 755.017 192.204C755.761 191.172 756.133 189.672 756.133 187.704V183.132C756.133 181.188 755.761 179.7 755.017 178.668C754.273 177.636 753.097 177.12 751.489 177.12H749.077V193.752H751.489ZM774.335 198.432C771.215 198.432 768.851 197.568 767.243 195.84C765.635 194.112 764.831 191.76 764.831 188.784C764.831 187.272 765.035 185.916 765.443 184.716C765.875 183.492 766.475 182.46 767.243 181.62C768.035 180.756 768.983 180.108 770.087 179.676C771.215 179.22 772.475 178.992 773.867 178.992C775.259 178.992 776.507 179.22 777.611 179.676C778.715 180.108 779.651 180.732 780.419 181.548C781.187 182.364 781.775 183.36 782.183 184.536C782.615 185.688 782.831 186.984 782.831 188.424V190.008H770.123V190.332C770.123 191.532 770.495 192.504 771.239 193.248C771.983 193.968 773.075 194.328 774.515 194.328C775.619 194.328 776.567 194.124 777.359 193.716C778.151 193.284 778.835 192.72 779.411 192.024L782.291 195.156C781.571 196.044 780.563 196.812 779.267 197.46C777.971 198.108 776.327 198.432 774.335 198.432ZM773.903 182.808C772.751 182.808 771.827 183.168 771.131 183.888C770.459 184.584 770.123 185.532 770.123 186.732V187.02H777.611V186.732C777.611 185.508 777.275 184.548 776.603 183.852C775.955 183.156 775.055 182.808 773.903 182.808ZM792.249 198L785.589 179.424H791.205L793.617 187.38L795.381 193.572H795.669L797.433 187.38L799.845 179.424H805.245L798.585 198H792.249ZM817.507 198.432C814.387 198.432 812.023 197.568 810.415 195.84C808.807 194.112 808.003 191.76 808.003 188.784C808.003 187.272 808.207 185.916 808.615 184.716C809.047 183.492 809.647 182.46 810.415 181.62C811.207 180.756 812.155 180.108 813.259 179.676C814.387 179.22 815.647 178.992 817.039 178.992C818.431 178.992 819.679 179.22 820.783 179.676C821.887 180.108 822.823 180.732 823.591 181.548C824.359 182.364 824.947 183.36 825.355 184.536C825.787 185.688 826.003 186.984 826.003 188.424V190.008H813.295V190.332C813.295 191.532 813.667 192.504 814.411 193.248C815.155 193.968 816.247 194.328 817.687 194.328C818.791 194.328 819.739 194.124 820.531 193.716C821.323 193.284 822.007 192.72 822.583 192.024L825.463 195.156C824.743 196.044 823.735 196.812 822.439 197.46C821.143 198.108 819.499 198.432 817.507 198.432ZM817.075 182.808C815.923 182.808 814.999 183.168 814.303 183.888C813.631 184.584 813.295 185.532 813.295 186.732V187.02H820.783V186.732C820.783 185.508 820.447 184.548 819.775 183.852C819.127 183.156 818.227 182.808 817.075 182.808ZM830.237 193.86H835.925V175.5H830.237V171.36H841.253V193.86H846.941V198H830.237V193.86ZM860.175 198.432C858.735 198.432 857.439 198.216 856.287 197.784C855.135 197.328 854.151 196.68 853.335 195.84C852.543 195 851.931 193.98 851.499 192.78C851.067 191.58 850.851 190.224 850.851 188.712C850.851 187.2 851.067 185.844 851.499 184.644C851.931 183.444 852.543 182.424 853.335 181.584C854.151 180.744 855.135 180.108 856.287 179.676C857.439 179.22 858.735 178.992 860.175 178.992C861.615 178.992 862.911 179.22 864.063 179.676C865.215 180.108 866.187 180.744 866.979 181.584C867.795 182.424 868.419 183.444 868.851 184.644C869.283 185.844 869.499 187.2 869.499 188.712C869.499 190.224 869.283 191.58 868.851 192.78C868.419 193.98 867.795 195 866.979 195.84C866.187 196.68 865.215 197.328 864.063 197.784C862.911 198.216 861.615 198.432 860.175 198.432ZM860.175 194.472C861.375 194.472 862.311 194.1 862.983 193.356C863.655 192.612 863.991 191.556 863.991 190.188V187.236C863.991 185.868 863.655 184.812 862.983 184.068C862.311 183.324 861.375 182.952 860.175 182.952C858.975 182.952 858.039 183.324 857.367 184.068C856.695 184.812 856.359 185.868 856.359 187.236V190.188C856.359 191.556 856.695 192.612 857.367 193.356C858.039 194.1 858.975 194.472 860.175 194.472ZM873.085 179.424H878.413V182.808H878.665C879.121 181.704 879.781 180.792 880.645 180.072C881.509 179.352 882.685 178.992 884.173 178.992C885.205 178.992 886.141 179.184 886.981 179.568C887.845 179.952 888.577 180.54 889.177 181.332C889.801 182.124 890.281 183.132 890.617 184.356C890.977 185.58 891.157 187.032 891.157 188.712C891.157 190.392 890.977 191.844 890.617 193.068C890.281 194.292 889.801 195.3 889.177 196.092C888.577 196.884 887.845 197.472 886.981 197.856C886.141 198.24 885.205 198.432 884.173 198.432C882.685 198.432 881.509 198.084 880.645 197.388C879.781 196.668 879.121 195.744 878.665 194.616H878.413V205.2H873.085V179.424ZM881.869 194.292C883.069 194.292 883.993 193.932 884.641 193.212C885.289 192.468 885.613 191.448 885.613 190.152V187.272C885.613 185.976 885.289 184.968 884.641 184.248C883.993 183.504 883.069 183.132 881.869 183.132C880.933 183.132 880.117 183.36 879.421 183.816C878.749 184.272 878.413 184.992 878.413 185.976V191.448C878.413 192.432 878.749 193.152 879.421 193.608C880.117 194.064 880.933 194.292 881.869 194.292ZM903.851 198.432C900.731 198.432 898.367 197.568 896.759 195.84C895.151 194.112 894.347 191.76 894.347 188.784C894.347 187.272 894.551 185.916 894.959 184.716C895.391 183.492 895.991 182.46 896.759 181.62C897.551 180.756 898.499 180.108 899.603 179.676C900.731 179.22 901.991 178.992 903.383 178.992C904.775 178.992 906.023 179.22 907.127 179.676C908.231 180.108 909.167 180.732 909.935 181.548C910.703 182.364 911.291 183.36 911.699 184.536C912.131 185.688 912.347 186.984 912.347 188.424V190.008H899.639V190.332C899.639 191.532 900.011 192.504 900.755 193.248C901.499 193.968 902.591 194.328 904.031 194.328C905.135 194.328 906.083 194.124 906.875 193.716C907.667 193.284 908.351 192.72 908.927 192.024L911.807 195.156C911.087 196.044 910.079 196.812 908.783 197.46C907.487 198.108 905.843 198.432 903.851 198.432ZM903.419 182.808C902.267 182.808 901.343 183.168 900.647 183.888C899.975 184.584 899.639 185.532 899.639 186.732V187.02H907.127V186.732C907.127 185.508 906.791 184.548 906.119 183.852C905.471 183.156 904.571 182.808 903.419 182.808ZM916.797 193.86H921.081V183.564H916.797V179.424H926.409V184.68H926.661C926.829 184.008 927.057 183.36 927.345 182.736C927.657 182.088 928.041 181.524 928.497 181.044C928.977 180.54 929.553 180.144 930.225 179.856C930.897 179.568 931.689 179.424 932.601 179.424H934.365V184.32H930.405C929.085 184.32 928.089 184.716 927.417 185.508C926.745 186.276 926.409 187.224 926.409 188.352V193.86H932.529V198H916.797V193.86Z" fill="white" fill-opacity="0.85"/>
<path d="M622.072 132V98.496H632.872C641.848 98.496 646.168 104.496 646.168 115.248C646.168 126 641.848 132 632.872 132H622.072ZM629.176 126.336H632.392C636.664 126.336 638.584 123.504 638.584 118.272V112.176C638.584 106.992 636.664 104.16 632.392 104.16H629.176V126.336ZM675.237 132H671.157C668.229 132 666.309 130.416 666.021 127.632H665.781C664.917 130.848 662.037 132.576 658.245 132.576C653.445 132.576 650.277 129.84 650.277 125.184C650.277 120 654.165 117.552 661.413 117.552H665.397V116.304C665.397 113.376 664.149 111.84 660.885 111.84C657.909 111.84 656.181 113.136 654.837 114.96L650.949 111.504C652.581 108.72 656.181 106.656 661.701 106.656C668.469 106.656 672.501 109.776 672.501 116.016V126.864H675.237V132ZM660.933 127.92C663.429 127.92 665.397 126.672 665.397 124.368V121.392H661.605C658.773 121.392 657.237 122.4 657.237 124.32V125.28C657.237 127.008 658.677 127.92 660.933 127.92ZM679.827 132L676.899 107.232H682.803L684.579 127.296H685.059L687.987 107.232H694.227L697.107 127.296H697.587L699.411 107.232H705.027L702.099 132H693.651L691.203 114.912H690.723L688.275 132H679.827ZM721.28 104.064C718.112 104.064 717.008 102.576 717.008 100.704V99.312C717.008 97.392 718.112 95.952 721.28 95.952C724.448 95.952 725.552 97.392 725.552 99.312V100.704C725.552 102.576 724.448 104.064 721.28 104.064ZM709.856 132V126.48H717.728V112.752H709.856V107.232H724.832V126.48H732.128V132H709.856ZM759.613 132H750.445C745.309 132 742.861 129.024 742.861 124.848V112.752H736.141V107.232H740.509C742.621 107.232 743.437 106.512 743.437 104.304V98.496H749.965V107.232H759.613V112.752H749.965V126.48H759.613V132ZM794.328 98.496H801.528V119.712C801.528 123.984 801.864 126.768 806.088 126.768C810.312 126.768 810.648 123.984 810.648 119.712V98.496H817.848V118.752C817.848 127.92 815.832 132.576 806.088 132.576C796.344 132.576 794.328 127.92 794.328 118.752V98.496Z" fill="white" fill-opacity="0.95"/>
<defs>
<linearGradient id="paint0_linear_1_2" x1="720" y1="0" x2="720" y2="480" gradientUnits="userSpaceOnUse">
<stop stop-color="#22C55E"/>
<stop offset="1" stop-color="#A3E635"/>
</linearGradient>
<clipPath id="clip0_1_2">
<rect width="45.8387" height="45.8387" fill="white" transform="translate(608.677 267)"/>
</clipPath>
<clipPath id="clip1_1_2">
<rect width="46.7742" height="45.8387" fill="white" transform="translate(696.613 267)"/>
</clipPath>
<clipPath id="clip2_1_2">
<rect width="45.8387" height="45.8387" fill="white" transform="translate(1051.16 267)"/>
</clipPath>
<clipPath id="clip3_1_2">
<rect width="46.7742" height="45.8387" fill="white" transform="translate(873.419 267)"/>
</clipPath>
<clipPath id="clip4_1_2">
<rect width="45.8387" height="45.8387" fill="white" transform="translate(785.484 267)"/>
</clipPath>
<clipPath id="clip5_1_2">
<rect width="45.8387" height="45.8387" fill="white" transform="translate(962.29 267)"/>
</clipPath>
<clipPath id="clip6_1_2">
<rect width="45.8387" height="45.8387" fill="white" transform="translate(343 267)"/>
</clipPath>
<clipPath id="clip7_1_2">
<rect width="45.8387" height="45.8387" fill="white" transform="translate(431.871 267)"/>
</clipPath>
<clipPath id="clip8_1_2">
<rect width="46.7742" height="45.8387" fill="white" transform="translate(519.806 267)"/>
</clipPath>
</defs>
</svg>
